<?xml version="1.0" encoding="UTF-8"?>
<svg xmlns="http://www.w3.org/2000/svg" width="24" height="24" viewBox="0 0 24 24" fill="none">
  <path d="M16.5937 9.00015C17.4844 9.00015 17.9062 10.0783 17.2969 10.6876L12.7031 15.2814C12.3281 15.7033 11.6719 15.7033 11.2969 15.2814L6.70311 10.6877C6.04686 10.0783 6.51561 9.00015 7.40624 9.00015L8.99999 9.00015L8.99999 3.98453C8.99999 3.4689 9.46874 3.00015 9.98436 3.00015L14.0156 3.00015C14.5312 3.00015 15 3.4689 15 3.98452L15 9.00015L16.5937 9.00015ZM5.01561 18.9845C5.01561 18.4689 5.43749 18.0002 5.99999 18.0002L18 18.0001C18.5625 18.0001 18.9844 18.4689 18.9844 18.9845C18.9844 19.547 18.5625 20.0158 18 20.0158L5.99999 20.0158C5.43749 20.0158 5.01561 19.547 5.01561 18.9845Z" fill="#A90D43"></path>
</svg>
