<svg xmlns="http://www.w3.org/2000/svg" width="111.412" height="48" viewBox="0 0 111.412 48"><g transform="translate(-584 -140)"><path d="M110.815,0H.6A.6.6,0,0,0,0,.6V47.4a.6.6,0,0,0,.6.6H110.815a.6.6,0,0,0,.6-.6V.6A.6.6,0,0,0,110.815,0ZM3.766,44.236V3.766H107.648v40.47Z" transform="translate(584 140)"></path><g transform="translate(599.342 155.012)"><path d="M95.236,94.281a5.2,5.2,0,0,0-1.665-1.139,4.993,4.993,0,0,0-1.973-.405,4.145,4.145,0,0,0-1.714.322,5.844,5.844,0,0,0-1.106.643l-.062-.018.579-3.168h6.433a.13.13,0,0,0,.13-.13V87.33a.13.13,0,0,0-.13-.13H86.2a.131.131,0,0,0-.13.116l-.883,8.093a.131.131,0,0,0,.076.134L88.7,97.118a.131.131,0,0,0,.152-.033,2.843,2.843,0,0,1,.822-.639A2.418,2.418,0,0,1,90.81,96.2a2.091,2.091,0,0,1,1.566.628A2.173,2.173,0,0,1,93,98.408a2.149,2.149,0,0,1-.63,1.578,2.094,2.094,0,0,1-1.531.63,2.344,2.344,0,0,1-1.676-.6,3.161,3.161,0,0,1-.869-1.687.13.13,0,0,0-.174-.1L84.844,99.5a.131.131,0,0,0-.08.152,5.617,5.617,0,0,0,.88,2,5.762,5.762,0,0,0,1.428,1.416,5.945,5.945,0,0,0,1.794.831,7.418,7.418,0,0,0,1.968.268,6.793,6.793,0,0,0,2.409-.414,5.7,5.7,0,0,0,1.906-1.173,5.23,5.23,0,0,0,1.249-1.823,6.136,6.136,0,0,0,.44-2.353,6.054,6.054,0,0,0-.44-2.342A5.6,5.6,0,0,0,95.236,94.281Z" transform="translate(-84.761 -86.48)"></path><path d="M173.8,94.281a5.2,5.2,0,0,0-1.665-1.139,4.992,4.992,0,0,0-1.973-.405,4.145,4.145,0,0,0-1.714.322,5.842,5.842,0,0,0-1.106.643l-.062-.018.579-3.168h6.433a.13.13,0,0,0,.13-.13V87.33a.13.13,0,0,0-.13-.13h-9.525a.131.131,0,0,0-.13.116l-.883,8.093a.131.131,0,0,0,.076.134l3.437,1.575a.131.131,0,0,0,.152-.033,2.843,2.843,0,0,1,.822-.639,2.418,2.418,0,0,1,1.133-.246,2.091,2.091,0,0,1,1.566.628,2.173,2.173,0,0,1,.619,1.58,2.149,2.149,0,0,1-.63,1.578,2.094,2.094,0,0,1-1.531.63,2.344,2.344,0,0,1-1.676-.6,3.161,3.161,0,0,1-.869-1.687.13.13,0,0,0-.174-.1L163.4,99.5a.13.13,0,0,0-.08.152,5.616,5.616,0,0,0,.88,2,5.761,5.761,0,0,0,1.428,1.416,5.945,5.945,0,0,0,1.794.831,7.419,7.419,0,0,0,1.968.268,6.794,6.794,0,0,0,2.409-.414,5.7,5.7,0,0,0,1.906-1.173,5.23,5.23,0,0,0,1.249-1.823,6.136,6.136,0,0,0,.44-2.353,6.054,6.054,0,0,0-.44-2.342A5.661,5.661,0,0,0,173.8,94.281Z" transform="translate(-149.151 -86.48)"></path><path d="M256,111.2a3.864,3.864,0,0,0-.816-.364,3.742,3.742,0,0,0-1.162-.165,3.78,3.78,0,0,0-2.026.568,4.316,4.316,0,0,0-1.363,1.292h-.036v-1.349a.13.13,0,0,0-.13-.13H247.12a.13.13,0,0,0-.13.13v11.7a.13.13,0,0,0,.13.13h3.58a.13.13,0,0,0,.13-.13v-5.371a3.832,3.832,0,0,1,.677-2.357,2.259,2.259,0,0,1,1.937-.88,3.375,3.375,0,0,1,.86.09,3.134,3.134,0,0,1,.63.252.135.135,0,0,0,.112.005.13.13,0,0,0,.074-.083l.93-3.191A.13.13,0,0,0,256,111.2Z" transform="translate(-217.724 -105.701)"></path><path d="M322.664,112.79h-3.58a.13.13,0,0,0-.13.13v5.371a4.15,4.15,0,0,1-.61,2.362,1.957,1.957,0,0,1-1.741.874,1.508,1.508,0,0,1-1.3-.556,2.427,2.427,0,0,1-.427-1.486V112.92a.13.13,0,0,0-.13-.13h-3.58a.13.13,0,0,0-.13.13v6.971a6.1,6.1,0,0,0,1.1,3.779,3.991,3.991,0,0,0,3.374,1.461,4.109,4.109,0,0,0,3.651-1.863h.036v1.349a.13.13,0,0,0,.13.13h3.342a.13.13,0,0,0,.13-.13v-11.7A.13.13,0,0,0,322.664,112.79Z" transform="translate(-270.216 -107.438)"></path><path d="M397.013,115.545h0l-1.814-.429a4.438,4.438,0,0,1-.938-.335c-.217-.112-.322-.25-.322-.422s.1-.291.315-.411a1.909,1.909,0,0,1,.938-.2,2.378,2.378,0,0,1,1.075.272,1.843,1.843,0,0,1,.813.849.129.129,0,0,0,.167.062l3.079-1.265a.135.135,0,0,0,.072-.072.132.132,0,0,0,0-.1,4.275,4.275,0,0,0-2.044-2.178,7.3,7.3,0,0,0-3.184-.646,6.946,6.946,0,0,0-1.971.268,5.026,5.026,0,0,0-1.569.76,3.677,3.677,0,0,0-1.052,1.2,3.249,3.249,0,0,0-.386,1.578,2.985,2.985,0,0,0,.326,1.41,3.618,3.618,0,0,0,.842,1.053,4.537,4.537,0,0,0,1.131.713,5.96,5.96,0,0,0,1.195.389l1.6.335a4.4,4.4,0,0,1,1.18.4.576.576,0,0,1,.319.519.544.544,0,0,1-.329.472,2.121,2.121,0,0,1-1.044.21,2.536,2.536,0,0,1-1.363-.351,2.294,2.294,0,0,1-.88-1.12.123.123,0,0,0-.071-.071.131.131,0,0,0-.1,0l-3.222,1.361a.129.129,0,0,0-.071.167,5.321,5.321,0,0,0,.709,1.26,4.859,4.859,0,0,0,1.166,1.1,6.13,6.13,0,0,0,1.647.769,7.487,7.487,0,0,0,2.187.293,6.567,6.567,0,0,0,2.13-.329,5.412,5.412,0,0,0,1.663-.894,4.081,4.081,0,0,0,1.084-1.307,3.381,3.381,0,0,0,.386-1.564,3.345,3.345,0,0,0-.918-2.333A5.388,5.388,0,0,0,397.013,115.545Z" transform="translate(-334.686 -105.701)"></path><path d="M471.749,88.232a4.311,4.311,0,0,0-2.116.518,3.49,3.49,0,0,0-1.238,1.345h-.023V83.35a.13.13,0,0,0-.13-.13h-3.58a.13.13,0,0,0-.13.13v17.093a.13.13,0,0,0,.13.13h3.58a.13.13,0,0,0,.13-.13V95.073a4.142,4.142,0,0,1,.61-2.362,1.955,1.955,0,0,1,1.741-.874,1.5,1.5,0,0,1,1.3.556,2.435,2.435,0,0,1,.427,1.486v6.565a.13.13,0,0,0,.13.13h3.58a.13.13,0,0,0,.13-.13V93.472a5.952,5.952,0,0,0-1.128-3.856A4.178,4.178,0,0,0,471.749,88.232Z" transform="translate(-396.028 -83.22)"></path></g></g></svg>