<svg xmlns="http://www.w3.org/2000/svg" width="73" height="72" viewBox="0 0 73 72" fill="none"><path d="M37.9505 30.8044L35.3247 30.4374C35.1159 29.6857 34.8093 28.9561 34.4094 28.253L36.0045 26.135C36.1955 25.8785 36.1689 25.5248 35.9423 25.2993L32.7789 22.1509C32.5523 21.9254 32.1924 21.8989 31.9391 22.089L29.8109 23.6765C29.1089 23.2829 28.367 22.9734 27.6028 22.7567L27.234 20.139C27.1896 19.8206 26.9141 19.5863 26.5942 19.5863L22.1157 19.5995C21.7958 19.5995 21.5247 19.8339 21.4803 20.1523L21.1116 22.7656C20.334 22.9778 19.5965 23.2785 18.9034 23.6632L16.7752 22.0758C16.5175 21.8856 16.1621 21.9077 15.9355 22.1332L12.7721 25.2816C12.5455 25.5071 12.5188 25.8652 12.7099 26.1173L14.3049 28.2353C13.9183 28.9251 13.6162 29.6592 13.403 30.433L10.7638 30.8133C10.4484 30.8575 10.2129 31.1272 10.2129 31.4456V35.8851C10.2129 36.2035 10.4484 36.4732 10.7638 36.5174L13.4118 36.8977C13.6429 37.6803 13.945 38.4144 14.3227 39.0821L12.7187 41.2134C12.5277 41.4698 12.5499 41.8236 12.7765 42.0491L15.9399 45.1974C16.1665 45.4229 16.5264 45.4495 16.7796 45.2549L18.9167 43.6586C19.5965 44.0389 20.334 44.344 21.1116 44.5651L21.4803 47.1828C21.5247 47.4968 21.7958 47.7355 22.1157 47.7355L26.5898 47.7488C26.9097 47.7488 27.1851 47.5145 27.2296 47.2005L27.6116 44.5651C28.3892 44.344 29.1267 44.0389 29.8109 43.6586L31.9391 45.2416C32.1968 45.4318 32.5523 45.4097 32.7789 45.1842L35.9423 42.0358C36.1689 41.8103 36.1955 41.4521 36.0045 41.2001L34.4094 39.0821C34.7915 38.4011 35.0981 37.6715 35.3202 36.8977L37.9505 36.5307C38.2704 36.4865 38.5059 36.2167 38.5059 35.8939V31.4279C38.5059 31.1095 38.2704 30.8398 37.9505 30.7912V30.8044ZM28.0471 37.3531C26.0122 39.3783 22.7021 39.3739 20.6628 37.3443C19.6765 36.3626 19.1344 35.0582 19.1344 33.6742C19.1344 32.2901 19.6765 30.9857 20.6628 30.0041C21.6492 29.0224 22.9598 28.4785 24.3549 28.483C25.7456 28.483 27.0518 29.0268 28.0382 30.0041C29.029 30.9901 29.571 32.2946 29.571 33.6874C29.571 35.0803 29.029 36.3715 28.0426 37.3531H28.0471Z" fill="url(#paint0_linear_3743_2010)"></path><path d="M27.6073 55.991H7.1296C4.57488 55.991 2.5 53.926 2.5 51.3835V7.60753C2.5 5.06941 4.57932 3 7.1296 3H54.6474C57.2021 3 59.277 5.06941 59.277 7.60753V13.3603C59.277 13.9705 58.7794 14.4658 58.1663 14.4658H10.6484C10.0353 14.4658 9.5377 13.9705 9.5377 13.3603C9.5377 12.7501 10.0353 12.2549 10.6484 12.2549H57.0555V7.60753C57.0555 6.28541 55.9759 5.21091 54.6474 5.21091H7.1296C5.80114 5.21091 4.7215 6.28541 4.7215 7.60753V51.3835C4.7215 52.7056 5.80114 53.7801 7.1296 53.7801H27.6073C28.2205 53.7801 28.7181 54.2754 28.7181 54.8856C28.7181 55.4958 28.2205 55.991 27.6073 55.991Z" fill="#28292B"></path><path d="M16.4288 10.212H14.6693C14.0562 10.212 13.5586 9.71673 13.5586 9.10652C13.5586 8.49631 14.0562 8.00107 14.6693 8.00107H16.4288C17.0419 8.00107 17.5395 8.49631 17.5395 9.10652C17.5395 9.71673 17.0419 10.212 16.4288 10.212Z" fill="#28292B"></path><path d="M23.2178 10.212H21.4584C20.8453 10.212 20.3477 9.71673 20.3477 9.10652C20.3477 8.49631 20.8453 8.00107 21.4584 8.00107H23.2178C23.831 8.00107 24.3286 8.49631 24.3286 9.10652C24.3286 9.71673 23.831 10.212 23.2178 10.212Z" fill="#28292B"></path><path d="M45.997 62.2789C45.686 62.2789 45.375 62.1506 45.1528 61.8942L40.0523 55.9911H38.1596C37.5464 55.9911 37.0488 55.4958 37.0488 54.8856C37.0488 54.2754 37.5464 53.7802 38.1596 53.7802H40.5632C40.8876 53.7802 41.1941 53.9217 41.4074 54.1649L46.8412 60.4527C47.2411 60.917 47.1877 61.6112 46.7257 62.0136C46.5168 62.1949 46.2592 62.2789 46.0015 62.2789H45.997Z" fill="#28292B"></path><path d="M48.9824 68.9999C51.4288 68.9999 53.4121 67.0261 53.4121 64.5913C53.4121 62.1566 51.4288 60.1828 48.9824 60.1828C46.536 60.1828 44.5527 62.1566 44.5527 64.5913C44.5527 67.0261 46.536 68.9999 48.9824 68.9999Z" fill="url(#paint1_linear_3743_2010)"></path><path d="M66.0703 52.0644C68.5167 52.0644 70.5 50.0906 70.5 47.6558C70.5 45.221 68.5167 43.2473 66.0703 43.2473C63.6239 43.2473 61.6406 45.221 61.6406 47.6558C61.6406 50.0906 63.6239 52.0644 66.0703 52.0644Z" fill="url(#paint2_linear_3743_2010)"></path><path d="M51.9364 41.0628H48.9818C48.3687 41.0584 47.8711 40.5632 47.8711 39.953C47.8711 39.3427 48.3687 38.8475 48.9818 38.8475H51.4255L56.526 32.9488C56.9259 32.4845 57.6279 32.4359 58.0944 32.8338C58.5609 33.2318 58.6142 33.9304 58.2099 34.3947L52.7762 40.6826C52.5673 40.9258 52.2563 41.0672 51.932 41.0672L51.9364 41.0628Z" fill="#28292B"></path><path d="M60.3593 34.6599C62.8058 34.6599 64.789 32.6862 64.789 30.2514C64.789 27.8166 62.8058 25.8428 60.3593 25.8428C57.9129 25.8428 55.9297 27.8166 55.9297 30.2514C55.9297 32.6862 57.9129 34.6599 60.3593 34.6599Z" fill="url(#paint3_linear_3743_2010)"></path><path d="M61.6403 48.7614H43.935C43.3218 48.7614 42.8242 48.2661 42.8242 47.6559C42.8242 47.0457 43.3218 46.5505 43.935 46.5505H61.6403C62.2534 46.5505 62.751 47.0457 62.751 47.6559C62.751 48.2661 62.2534 48.7614 61.6403 48.7614Z" fill="#28292B"></path><defs><linearGradient id="paint0_linear_3743_2010" x1="34.8229" y1="36.685" x2="10.7007" y2="36.685" gradientUnits="userSpaceOnUse"><stop stop-color="#D6001C"></stop><stop offset="1" stop-color="#6A1F7A"></stop></linearGradient><linearGradient id="paint1_linear_3743_2010" x1="52.2588" y1="65.536" x2="44.7055" y2="65.536" gradientUnits="userSpaceOnUse"><stop stop-color="#D6001C"></stop><stop offset="1" stop-color="#6A1F7A"></stop></linearGradient><linearGradient id="paint2_linear_3743_2010" x1="69.3467" y1="48.6005" x2="61.7934" y2="48.6005" gradientUnits="userSpaceOnUse"><stop stop-color="#D6001C"></stop><stop offset="1" stop-color="#6A1F7A"></stop></linearGradient><linearGradient id="paint3_linear_3743_2010" x1="63.6358" y1="31.1961" x2="56.0824" y2="31.1961" gradientUnits="userSpaceOnUse"><stop stop-color="#D6001C"></stop><stop offset="1" stop-color="#6A1F7A"></stop></linearGradient></defs></svg>