<svg xmlns="http://www.w3.org/2000/svg" width="72" height="72" viewBox="0 0 72 72" fill="none"><path d="M36.0001 31.6445C29.3991 31.6445 24.0488 36.9948 24.0488 43.5958C24.0488 50.1969 29.3991 55.5471 36.0001 55.5471C42.6012 55.5471 47.9514 50.1969 47.9514 43.5958C47.9514 36.9948 42.6012 31.6445 36.0001 31.6445ZM36.872 49.8773V51.0094C36.872 51.4979 36.4794 51.8905 35.991 51.8905C35.5025 51.8905 35.1099 51.4979 35.1099 51.0094V49.8727C33.3706 49.4893 32.0742 48.0148 32.0742 46.2572C32.0742 45.7688 32.4668 45.3762 32.9552 45.3762C33.4437 45.3762 33.8363 45.7688 33.8363 46.2572C33.8363 47.3346 34.8086 48.2111 36.0047 48.2111C37.2007 48.2111 38.1731 47.3346 38.1731 46.2572C38.1731 45.4173 37.324 44.9288 35.9316 44.2304L35.2834 43.9017C33.85 43.185 32.065 42.2948 32.065 40.2998C32.065 38.5377 33.3706 37.0587 35.1145 36.6798V35.5476C35.1145 35.0592 35.5071 34.6666 35.9955 34.6666C36.484 34.6666 36.8766 35.0592 36.8766 35.5476V36.6798C38.6205 37.0587 39.9261 38.5377 39.9261 40.2998C39.9261 40.7883 39.5335 41.1809 39.045 41.1809C38.5565 41.1809 38.1639 40.7883 38.1639 40.2998C38.1639 39.2225 37.1916 38.3414 35.9955 38.3414C34.7995 38.3414 33.8272 39.2179 33.8272 40.2998C33.8272 41.1444 34.6763 41.6283 36.0732 42.3267L36.726 42.6554C38.1594 43.3721 39.9443 44.2669 39.9443 46.2572C39.9443 48.0239 38.6296 49.503 36.8812 49.8819L36.872 49.8773Z" fill="url(#paint0_linear_16192_39346)"></path><path d="M67.3573 63.8963H4.64273C4.01275 63.8963 3.50146 63.385 3.50146 62.755C3.50146 62.1251 4.01275 61.6138 4.64273 61.6138H67.3573C67.9872 61.6138 68.4985 62.1251 68.4985 62.755C68.4985 63.385 67.9872 63.8963 67.3573 63.8963Z" fill="#0F0F1A"></path><path d="M19.7209 63.8961H6.77447C6.37731 63.8961 6.01211 63.6907 5.80212 63.3529C5.59213 63.015 5.57387 62.5951 5.75191 62.2435L8.50463 56.7518C8.69636 56.3638 9.09351 56.1218 9.52719 56.1218H16.9728C17.4065 56.1218 17.799 56.3638 17.9953 56.7518L20.7481 62.2435C20.9261 62.5951 20.9078 63.0196 20.6979 63.3529C20.4879 63.6907 20.1227 63.8961 19.7255 63.8961H19.7209ZM8.62332 61.6136H17.8721L16.2652 58.4043H10.2302L8.62332 61.6136Z" fill="#0F0F1A"></path><path d="M65.2156 63.8961H52.2691C51.8719 63.8961 51.5067 63.6907 51.2968 63.3529C51.0868 63.015 51.0685 62.5951 51.2465 62.2435L53.9993 56.7518C54.191 56.3638 54.5882 56.1218 55.0218 56.1218H62.4674C62.9011 56.1218 63.2937 56.3638 63.49 56.7518L66.2427 62.2435C66.4207 62.5951 66.4025 63.0196 66.1925 63.3529C65.9825 63.6907 65.6173 63.8961 65.2201 63.8961H65.2156ZM54.1225 61.6136H63.3713L61.7644 58.4043H55.7294L54.1225 61.6136Z" fill="#0F0F1A"></path><path d="M16.9589 58.4047H9.527C8.89703 58.4047 8.38574 57.8934 8.38574 57.2634V24.4362C8.38574 23.8062 8.89703 23.2949 9.527 23.2949H16.9589C17.5889 23.2949 18.1002 23.8062 18.1002 24.4362V44.3991C18.1002 45.0291 17.5889 45.5404 16.9589 45.5404C16.3289 45.5404 15.8176 45.0291 15.8176 44.3991V25.5774H10.6683V56.1176H15.8176V51.9725C15.8176 51.3425 16.3289 50.8313 16.9589 50.8313C17.5889 50.8313 18.1002 51.3425 18.1002 51.9725V57.2588C18.1002 57.8888 17.5889 58.4001 16.9589 58.4001V58.4047Z" fill="#0F0F1A"></path><path d="M62.2306 58.4047H55.2643C54.6343 58.4047 54.123 57.8934 54.123 57.2634V24.4362C54.123 23.8062 54.6343 23.2949 55.2643 23.2949H62.2306C62.8605 23.2949 63.3718 23.8062 63.3718 24.4362V57.2588C63.3718 57.8888 62.8605 58.4001 62.2306 58.4001V58.4047ZM56.401 56.1221H61.0847V25.5774H56.401V56.1176V56.1221Z" fill="#0F0F1A"></path><path d="M39.9351 25.5775H4.64273C4.10862 25.5775 3.64755 25.2123 3.52886 24.6919C3.41017 24.1715 3.66581 23.6419 4.14514 23.4091L17.9179 16.7396C18.4839 16.4657 19.1687 16.7031 19.4426 17.2691C19.7165 17.8352 19.4791 18.5199 18.913 18.7938L9.61862 23.295H39.9396C40.5696 23.295 41.0809 23.8063 41.0809 24.4362C41.0809 25.0662 40.5696 25.5775 39.9396 25.5775H39.9351Z" fill="#0F0F1A"></path><path d="M67.3567 25.5774H47.4394C46.8095 25.5774 46.2982 25.0661 46.2982 24.4361C46.2982 23.8061 46.8095 23.2948 47.4394 23.2948H62.3808L35.9994 10.5127L25.7235 15.4886C25.1575 15.7625 24.4727 15.5251 24.1988 14.9591C23.9249 14.393 24.1623 13.7082 24.7283 13.4343L35.5018 8.2165C35.8168 8.06585 36.182 8.06585 36.497 8.2165L67.8543 23.4044C68.3336 23.6372 68.5893 24.1668 68.4706 24.6872C68.3519 25.2076 67.8908 25.5728 67.3567 25.5728V25.5774Z" fill="#0F0F1A"></path><defs><linearGradient id="paint0_linear_16192_39346" x1="44.8399" y1="46.1568" x2="24.4609" y2="46.1568" gradientUnits="userSpaceOnUse"><stop stop-color="#D6001C"></stop><stop offset="1" stop-color="#6A1F7A"></stop></linearGradient></defs></svg>