<svg xmlns="http://www.w3.org/2000/svg" width="68" height="46" viewBox="0 0 68 46" fill="none"><g id="Group 1673"><path id="Vector" d="M62.3845 46.0002H5.61547C2.79184 46.0002 0.5 43.7781 0.5 41.0449V4.95561C0.5 2.22242 2.79655 0.000244141 5.61547 0.000244141C6.26491 0.000244141 6.79198 0.525316 6.79198 1.17228C6.79198 1.81924 6.26491 2.34431 5.61547 2.34431C4.09071 2.34431 2.85302 3.51635 2.85302 4.95561V41.0449C2.85302 42.4841 4.09542 43.6562 5.61547 43.6562H62.3845C63.9093 43.6562 65.147 42.4841 65.147 41.0449V4.95561C65.147 3.51635 63.9046 2.34431 62.3845 2.34431C61.7351 2.34431 61.208 1.81924 61.208 1.17228C61.208 0.525316 61.7351 0.000244141 62.3845 0.000244141C65.2082 0.000244141 67.5 2.22242 67.5 4.95561V41.0449C67.5 43.7781 65.2035 46.0002 62.3845 46.0002Z" fill="#0F0F1A"></path><path id="Vector_2" fill-rule="evenodd" clip-rule="evenodd" d="M12.477 10.0305L32.8201 1.14237C33.2528 0.952869 33.7472 0.952869 34.1798 1.14237C40.9593 4.10969 47.7435 7.06776 54.523 10.0305C55.8257 10.599 55.8257 12.4015 54.523 12.97L34.1798 21.8581C33.7472 22.0476 33.2528 22.0476 32.8201 21.8581L12.477 12.97C11.1743 12.4015 11.1743 10.599 12.477 10.0305Z" fill="url(#paint0_linear_4475_4100)"></path><path id="Vector_3" d="M45.3497 36.0002C44.7148 36.0002 44.1994 35.4651 44.1994 34.8056V31.4607C44.1994 30.8013 44.7148 30.2661 45.3497 30.2661C45.9847 30.2661 46.5 30.8013 46.5 31.4607V34.8056C46.5 35.4651 45.9847 36.0002 45.3497 36.0002ZM45.3497 26.1758C44.7148 26.1758 44.1994 25.6406 44.1994 24.9812V16.724L34.1183 11.2527C33.557 10.9469 33.3361 10.2254 33.6306 9.6424C33.9251 9.05943 34.6199 8.83007 35.1812 9.13589L45.8789 14.9417C46.2562 15.1472 46.4954 15.5581 46.4954 16.0025V24.986C46.4954 25.6454 45.9801 26.1806 45.3451 26.1806L45.3497 26.1758Z" fill="#28292B"></path><path id="Vector_4" d="M33.3251 33.0002H24.6669C22.9872 33.0002 21.4207 32.2517 20.2458 30.8986C19.1228 29.5967 18.5 27.881 18.5 26.0677V20.1626C18.5 19.521 19.0285 19.0002 19.6796 19.0002C20.3307 19.0002 20.8592 19.521 20.8592 20.1626V26.0677C20.8592 27.3277 21.2791 28.5087 22.0388 29.3921C22.756 30.2198 23.6855 30.6754 24.6622 30.6754H33.3204C33.9715 30.6754 34.5 31.1962 34.5 31.8378C34.5 32.4795 33.9715 33.0002 33.3204 33.0002H33.3251Z" fill="#28292B"></path></g><defs><linearGradient id="paint0_linear_4475_4100" x1="49.7724" y1="13.7502" x2="12.2586" y2="13.7502" gradientUnits="userSpaceOnUse"><stop stop-color="#D6001C"></stop><stop offset="1" stop-color="#6A1F7A"></stop></linearGradient></defs></svg>