<svg xmlns="http://www.w3.org/2000/svg" width="72" height="72" viewBox="0 0 72 72" fill="none"><path d="M22.3945 40.6474H32.5072L35.3664 35.9709C35.6105 35.5694 36.0471 35.3426 36.526 35.3757C36.9908 35.4135 37.3992 35.7064 37.5823 36.1457L40.4133 42.9668L46.2866 28.7908C46.5025 28.2712 47.0424 27.9594 47.587 28.0255C48.141 28.0917 48.587 28.5215 48.6715 29.0742L50.526 40.7797H63.7748C65.296 38.8193 66.127 36.4055 66.127 33.9208C66.127 26.2163 60.3054 19.9668 53.127 19.9668C49.1035 19.9668 45.5119 21.9272 43.127 25.0071C40.742 21.9272 37.1504 19.9668 33.1269 19.9668C25.9485 19.9668 20.127 26.2116 20.127 33.9208C20.127 33.9397 20.127 33.9539 20.127 33.9728C20.1363 36.3819 20.9861 38.7012 22.3898 40.6474H22.3945Z" fill="url(#paint0_linear_4475_3630)"></path><path d="M49.6112 43.3143C48.9868 43.3143 48.4578 42.8705 48.3577 42.2679L47.0089 33.9668L41.5947 46.6917C41.3993 47.1541 40.9369 47.4578 40.4269 47.4578C39.917 47.4578 39.4547 47.1588 39.2593 46.6963L36.1661 39.437L34.1882 42.5855C33.9594 42.9546 33.5495 43.1788 33.111 43.1788H24.127L24.88 44.1084C27.1868 46.9439 29.6508 49.6533 32.2626 52.2226L43.1865 62.9668L54.6489 51.6901C56.7937 49.5786 58.8193 47.3597 60.7209 45.0333L62.127 43.3143H49.6207H49.6112Z" fill="url(#paint1_linear_4475_3630)"></path><path d="M24.6678 61.0878H10.4877C7.9461 61.0878 5.87305 59.0204 5.87305 56.4752V13.6463C5.87305 11.1058 7.94137 9.03369 10.4877 9.03369H56.7811C59.3228 9.03369 61.3958 11.1011 61.3958 13.6463C61.3958 14.2992 60.8657 14.829 60.2126 14.829C59.5594 14.829 59.0293 14.2992 59.0293 13.6463C59.0293 12.4068 58.0212 11.3991 56.7811 11.3991H10.4877C9.24767 11.3991 8.23955 12.4068 8.23955 13.6463V56.4799C8.23955 57.7194 9.24767 58.7271 10.4877 58.7271H24.6678C25.3209 58.7271 25.851 59.257 25.851 59.9098C25.851 60.5627 25.3209 61.0925 24.6678 61.0925V61.0878Z" fill="#28292B"></path><path d="M16.2423 18.2446H14.529C13.8758 18.2446 13.3457 17.7147 13.3457 17.0619C13.3457 16.409 13.8758 15.8792 14.529 15.8792H16.2423C16.8954 15.8792 17.4255 16.409 17.4255 17.0619C17.4255 17.7147 16.8954 18.2446 16.2423 18.2446Z" fill="#28292B"></path><path d="M22.8536 18.2446H21.1403C20.4871 18.2446 19.957 17.7147 19.957 17.0619C19.957 16.409 20.4871 15.8792 21.1403 15.8792H22.8536C23.5068 15.8792 24.0369 16.409 24.0369 17.0619C24.0369 17.7147 23.5068 18.2446 22.8536 18.2446Z" fill="#28292B"></path><defs><linearGradient id="paint0_linear_4475_3630" x1="60.139" y1="33.9311" x2="20.9201" y2="33.9311" gradientUnits="userSpaceOnUse"><stop stop-color="#D6001C"></stop><stop offset="1" stop-color="#6A1F7A"></stop></linearGradient><linearGradient id="paint1_linear_4475_3630" x1="57.1804" y1="51.5739" x2="24.7821" y2="51.5739" gradientUnits="userSpaceOnUse"><stop stop-color="#D6001C"></stop><stop offset="1" stop-color="#6A1F7A"></stop></linearGradient></defs></svg>