<svg xmlns="http://www.w3.org/2000/svg" width="72" height="72" viewBox="0 0 72 72" fill="none"><path d="M34.2759 35.3148C32.0916 36.755 28.1645 39.045 24.3383 39.7123C23.1477 39.9187 22.2788 40.9557 22.2788 42.1655V54.6187C22.2788 57.6768 23.5318 60.4276 25.6249 61.9782C27.8141 63.5961 34.3527 67.9072 34.6312 68.0896C35.4617 68.6369 36.5419 68.6369 37.3724 68.0896C37.6509 67.9072 44.1895 63.5961 46.3786 61.9782C48.4766 60.4276 49.7248 57.6768 49.7248 54.6187V42.1655C49.7248 40.9557 48.8558 39.9235 47.6652 39.7123C43.839 39.045 39.912 36.755 37.7277 35.3148C36.6763 34.6187 35.3177 34.6187 34.2663 35.3148H34.2759ZM43.9158 48.9298L36.0762 56.7694C35.7497 57.0959 35.3177 57.2591 34.8904 57.2591C34.4631 57.2591 34.0311 57.0959 33.7046 56.7694L28.9375 52.0023C28.2894 51.3542 28.1885 50.2788 28.8078 49.6067C29.4607 48.8962 30.5601 48.877 31.2322 49.5539L34.876 53.1977C34.876 53.1977 34.8952 53.2025 34.9 53.1977L41.6211 46.4766C42.2932 45.8045 43.3974 45.8189 44.0455 46.5294C44.6936 47.2399 44.5639 48.2769 43.9158 48.925V48.9298Z" fill="url(#paint0_linear_1170_16831)"></path><path d="M27.5023 22.9095C27.3919 22.9095 27.2815 22.8951 27.1662 22.8615C26.5277 22.679 26.1629 22.0117 26.3453 21.3732C26.9934 19.1313 27.8479 16.9949 28.9521 14.849C29.2546 14.2585 29.9795 14.0281 30.57 14.3305C31.1605 14.633 31.3909 15.3579 31.0885 15.9484C30.0515 17.9551 29.2594 19.9474 28.6545 22.0405C28.5008 22.5638 28.0208 22.9095 27.5023 22.9095Z" fill="#0F0F1A"></path><path d="M44.6123 23.2888C44.0842 23.2888 43.6041 22.9384 43.4553 22.4103C42.8408 20.1875 42.0103 18.0752 40.9157 15.9532C40.6133 15.3628 40.8437 14.6426 41.4342 14.3354C42.0247 14.0329 42.7496 14.2634 43.052 14.8539C44.2234 17.1294 45.1116 19.3906 45.7693 21.7718C45.9469 22.4103 45.5724 23.0728 44.9339 23.2504C44.8283 23.2792 44.7179 23.2936 44.6123 23.2936V23.2888Z" fill="#0F0F1A"></path><path d="M26.2783 32.8567C26.2783 32.8567 26.2447 32.8567 26.2255 32.8567C25.467 32.8375 24.79 32.391 24.4636 31.6901C24.0747 30.8547 23.5755 30.101 22.985 29.4481C22.5385 28.9584 22.5769 28.1999 23.0714 27.7534C23.561 27.307 24.3196 27.3454 24.766 27.8399C25.3565 28.4928 25.8702 29.2177 26.3023 30.005C28.381 26.6541 32.0296 24.6041 36.0046 24.6041C39.9797 24.6041 43.6282 26.6541 45.707 30.005C47.5361 26.6541 50.7526 24.6041 54.2571 24.6041C56.139 24.6041 57.9825 25.2042 59.562 26.318C57.2768 20.1922 52.6585 15.1418 46.7151 12.3334C43.3546 10.7443 39.7492 9.94262 35.9998 9.94262C25.3901 9.94262 16.0911 16.4669 12.4377 26.318C14.0219 25.2042 15.8654 24.6041 17.7473 24.6041C18.4098 24.6041 18.9475 25.1418 18.9475 25.8043C18.9475 26.4668 18.4098 27.0045 17.7473 27.0045C15.995 27.0045 14.3484 27.6814 12.9802 28.968C12.3033 29.6065 11.3191 29.7026 10.5318 29.2129C9.75886 28.728 9.4228 27.8159 9.69165 26.9421C13.297 15.3339 23.8683 7.54224 36.0046 7.54224C40.1093 7.54224 44.0603 8.42558 47.7425 10.1635C54.718 13.4568 60.0276 19.5729 62.308 26.9373C62.5768 27.8111 62.2408 28.7232 61.4679 29.2081C60.6853 29.6978 59.7012 29.6017 59.0195 28.968C57.6513 27.6814 56.0046 27.0045 54.2523 27.0045C51.4583 27.0045 48.8851 28.8 47.5361 31.6901C47.2096 32.391 46.5327 32.8375 45.7742 32.8567C45.0157 32.8807 44.3196 32.4678 43.9547 31.7813C42.38 28.8336 39.3316 26.9997 35.995 26.9997C32.6585 26.9997 29.61 28.8288 28.0354 31.7813C27.6801 32.4486 27.008 32.8567 26.2687 32.8567H26.2783Z" fill="#0F0F1A"></path><path d="M36.0044 9.94262C35.3419 9.94262 34.8042 9.40494 34.8042 8.74243V4.70019C34.8042 4.03769 35.3419 3.5 36.0044 3.5C36.6669 3.5 37.2046 4.03769 37.2046 4.70019V8.74243C37.2046 9.40494 36.6669 9.94262 36.0044 9.94262Z" fill="#0F0F1A"></path><defs><linearGradient id="paint0_linear_1170_16831" x1="46.1521" y1="55.2579" x2="22.752" y2="55.2579" gradientUnits="userSpaceOnUse"><stop stop-color="#D6001C"></stop><stop offset="1" stop-color="#6A1F7A"></stop></linearGradient></defs></svg>