<svg xmlns="http://www.w3.org/2000/svg" width="72" height="72" viewBox="0 0 72 72" fill="none"><path d="M36.3431 35.0002H33.1502C32.5153 35.0002 32 34.4661 32 33.8079C32 33.1497 32.5153 32.6155 33.1502 32.6155H35.7266L39.6372 26.5297C39.8488 26.1958 40.2077 26.0002 40.5942 26.0002H44.8498C45.4847 26.0002 46 26.5344 46 27.1926C46 27.8508 45.4847 28.385 44.8498 28.385H41.2106L37.3 34.4708C37.0884 34.8047 36.7295 35.0002 36.3431 35.0002Z" fill="#0F0F1A"></path><path d="M59.7866 42.5002H29.2134C28.5436 42.5002 28 41.9402 28 41.2502C28 40.5602 28.5436 40.0002 29.2134 40.0002H59.7866C60.4564 40.0002 61 40.5602 61 41.2502C61 41.9402 60.4564 42.5002 59.7866 42.5002Z" fill="#0F0F1A"></path><path d="M49 32.0002C51.2091 32.0002 53 29.9855 53 27.5002C53 25.015 51.2091 23.0002 49 23.0002C46.7909 23.0002 45 25.015 45 27.5002C45 29.9855 46.7909 32.0002 49 32.0002Z" fill="url(#paint0_linear_4857_5934)"></path><path d="M62.5 45.0002C64.9853 45.0002 67 42.9855 67 40.5002C67 38.015 64.9853 36.0002 62.5 36.0002C60.0147 36.0002 58 38.015 58 40.5002C58 42.9855 60.0147 45.0002 62.5 45.0002Z" fill="url(#paint1_linear_4857_5934)"></path><path d="M37.8673 57.0002C37.5408 57.0002 37.2188 56.8524 36.9966 56.571L32.0945 50.385H23.1337C22.5079 50.385 22 49.8508 22 49.1926C22 48.5344 22.5079 48.0002 23.1337 48.0002H32.6251C32.9606 48.0002 33.2826 48.1576 33.4958 48.4295L38.738 55.0448C39.1371 55.5503 39.0736 56.3039 38.5929 56.7236C38.3798 56.9096 38.1258 57.0002 37.8673 57.0002Z" fill="#28292B"></path><path d="M41 63.0002C43.2091 63.0002 45 61.2094 45 59.0002C45 56.7911 43.2091 55.0002 41 55.0002C38.7909 55.0002 37 56.7911 37 59.0002C37 61.2094 38.7909 63.0002 41 63.0002Z" fill="url(#paint2_linear_4857_5934)"></path><path d="M25.8076 24.5002H19.1924C18.5342 24.5002 18 23.9402 18 23.2502C18 22.5602 18.5342 22.0002 19.1924 22.0002H25.8076C26.4658 22.0002 27 22.5602 27 23.2502C27 23.9402 26.4658 24.5002 25.8076 24.5002Z" fill="#28292B"></path><path d="M14.8844 47.5002H6.11562C5.4998 47.5002 5 46.9402 5 46.2502C5 45.5602 5.4998 45.0002 6.11562 45.0002H14.8844C15.5002 45.0002 16 45.5602 16 46.2502C16 46.9402 15.5002 47.5002 14.8844 47.5002Z" fill="#28292B"></path><path d="M62.7783 28.0002C62.1038 28.0002 61.5565 27.4637 61.5565 26.8026V14.6293C61.5565 12.8472 60.0757 11.3956 58.2578 11.3956H49.2217C48.5473 11.3956 48 10.859 48 10.1979C48 9.5368 48.5473 9.00024 49.2217 9.00024H58.2578C61.4246 9.00024 64 11.525 64 14.6293V26.8026C64 27.4637 63.4527 28.0002 62.7783 28.0002Z" fill="#28292B"></path><path d="M25.801 62.0002H10.6355C7.52758 62.0002 5 59.4867 5 56.3961V54.1926C5 53.5344 5.53717 53.0002 6.19904 53.0002C6.86091 53.0002 7.39808 53.5344 7.39808 54.1926V56.3961C7.39808 58.1704 8.85132 59.6155 10.6355 59.6155H25.801C26.4628 59.6155 27 60.1497 27 60.8079C27 61.4661 26.4628 62.0002 25.801 62.0002Z" fill="#28292B"></path><path d="M58.2424 62.0002H52.225C51.5488 62.0002 51 61.4501 51 60.7722C51 60.0943 51.5488 59.5441 52.225 59.5441H58.2424C60.0652 59.5441 61.5499 58.0557 61.5499 56.2283C61.5499 55.5504 62.0988 55.0002 62.775 55.0002C63.4512 55.0002 64 55.5504 64 56.2283C64 59.4115 61.4176 62.0002 58.2424 62.0002Z" fill="#28292B"></path><path d="M6.17005 40.0002C5.52418 40.0002 5 39.5065 5 38.8982V34.1023C5 33.4939 5.52418 33.0002 6.17005 33.0002H21.83C22.4758 33.0002 23 33.4939 23 34.1023C23 34.7106 22.4758 35.2043 21.83 35.2043H7.3401V38.8982C7.3401 39.5065 6.81591 40.0002 6.17005 40.0002Z" fill="#28292B"></path><path d="M12.6424 28.0002H6.16713C5.52288 28.0002 5 27.464 5 26.8032V14.6265C5 11.5237 7.46032 9.00024 10.4855 9.00024H28.8329C29.4771 9.00024 30 9.53653 30 10.1973C30 10.8581 29.4771 11.3944 28.8329 11.3944H10.4855C8.74883 11.3944 7.33427 12.8453 7.33427 14.6265V25.6061H12.6424C13.2866 25.6061 13.8095 26.1424 13.8095 26.8032C13.8095 27.464 13.2866 28.0002 12.6424 28.0002Z" fill="#28292B"></path><path d="M44.7232 11.5002H42.2768C41.572 11.5002 41 10.9402 41 10.2502C41 9.56024 41.572 9.00024 42.2768 9.00024H44.7232C45.428 9.00024 46 9.56024 46 10.2502C46 10.9402 45.428 11.5002 44.7232 11.5002Z" fill="#28292B"></path><defs><linearGradient id="paint0_linear_4857_5934" x1="51.9586" y1="28.4645" x2="45.1379" y2="28.4645" gradientUnits="userSpaceOnUse"><stop stop-color="#D6001C"></stop><stop offset="1" stop-color="#6A1F7A"></stop></linearGradient><linearGradient id="paint1_linear_4857_5934" x1="65.8284" y1="41.4645" x2="58.1552" y2="41.4645" gradientUnits="userSpaceOnUse"><stop stop-color="#D6001C"></stop><stop offset="1" stop-color="#6A1F7A"></stop></linearGradient><linearGradient id="paint2_linear_4857_5934" x1="43.9586" y1="59.8574" x2="37.1379" y2="59.8574" gradientUnits="userSpaceOnUse"><stop stop-color="#D6001C"></stop><stop offset="1" stop-color="#6A1F7A"></stop></linearGradient></defs></svg>