<svg xmlns="http://www.w3.org/2000/svg" width="70" height="52" viewBox="0 0 70 52" fill="none"><g id="Group 1678"><path id="Vector" d="M17.8692 22.9545H1.67941C1.02945 22.9545 0.501953 22.4297 0.501953 21.783C0.501953 21.1364 1.02945 20.6116 1.67941 20.6116H17.8692C18.5191 20.6116 19.0466 21.1364 19.0466 21.783C19.0466 22.4297 18.5191 22.9545 17.8692 22.9545Z" fill="#28292B"></path><path id="Vector_2" d="M29.6481 22.9545H23.822C23.172 22.9545 22.6445 22.4297 22.6445 21.783C22.6445 21.1364 23.172 20.6116 23.822 20.6116H29.6481C30.298 20.6116 30.8255 21.1364 30.8255 21.783C30.8255 22.4297 30.298 22.9545 29.6481 22.9545Z" fill="#28292B"></path><path id="Vector_3" d="M35.3938 29.8754H10.5446C9.89469 29.8754 9.36719 29.3506 9.36719 28.7039C9.36719 28.0573 9.89469 27.5325 10.5446 27.5325H35.3938C36.0437 27.5325 36.5712 28.0573 36.5712 28.7039C36.5712 29.3506 36.0437 29.8754 35.3938 29.8754Z" fill="#28292B"></path><path id="Vector_4" d="M43.2916 44.3872H26.063C25.413 44.3872 24.8855 43.8624 24.8855 43.2158C24.8855 42.5692 25.413 42.0443 26.063 42.0443H42.1141V2.84313H8.9548C8.30485 2.84313 7.77734 2.31833 7.77734 1.67169C7.77734 1.02505 8.30485 0.500244 8.9548 0.500244H43.2916C43.9415 0.500244 44.469 1.02505 44.469 1.67169V43.2158C44.469 43.8624 43.9415 44.3872 43.2916 44.3872Z" fill="#28292B"></path><path id="Vector_5" d="M68.3235 44.3873H43.2907C42.6408 44.3873 42.1133 43.8625 42.1133 43.2159V10.9918C42.1133 10.3451 42.6408 9.82031 43.2907 9.82031H59.3607C59.7422 9.82031 60.1049 10.0077 60.3215 10.317L69.2796 22.9733C69.4209 23.1701 69.4963 23.4044 69.4963 23.648V43.2159C69.4963 43.8625 68.9688 44.3873 68.3188 44.3873H68.3235ZM44.4682 42.0444H67.1461V24.0182L58.7531 12.1632H44.4682V42.0444Z" fill="#28292B"></path><path id="Vector_6" d="M60.4487 23.4606H48.9378C48.4433 23.4606 48.043 23.0623 48.043 22.5703V16.9333C48.043 16.4413 48.4433 16.043 48.9378 16.043H56.4642C56.7562 16.043 57.0293 16.1835 57.1989 16.4225L61.1834 22.0595C61.6026 22.6499 61.174 23.4652 60.4487 23.4652V23.4606Z" fill="url(#paint0_linear_4475_4237)"></path><path id="Vector_7" d="M15.9536 51.5002C19.7799 51.5002 22.8817 48.4142 22.8817 44.6074C22.8817 40.8006 19.7799 37.7146 15.9536 37.7146C12.1272 37.7146 9.02539 40.8006 9.02539 44.6074C9.02539 48.4142 12.1272 51.5002 15.9536 51.5002Z" fill="url(#paint1_linear_4475_4237)"></path><path id="Vector_8" d="M54.8442 51.5002C58.6705 51.5002 61.7724 48.4142 61.7724 44.6074C61.7724 40.8006 58.6705 37.7146 54.8442 37.7146C51.0179 37.7146 47.916 40.8006 47.916 44.6074C47.916 48.4142 51.0179 51.5002 54.8442 51.5002Z" fill="url(#paint2_linear_4475_4237)"></path></g><defs><linearGradient id="paint0_linear_4475_4237" x1="59.6164" y1="20.5493" x2="48.2724" y2="20.5493" gradientUnits="userSpaceOnUse"><stop stop-color="#D6001C"></stop><stop offset="1" stop-color="#6A1F7A"></stop></linearGradient><linearGradient id="paint1_linear_4475_4237" x1="21.078" y1="46.0844" x2="9.26429" y2="46.0844" gradientUnits="userSpaceOnUse"><stop stop-color="#D6001C"></stop><stop offset="1" stop-color="#6A1F7A"></stop></linearGradient><linearGradient id="paint2_linear_4475_4237" x1="59.9687" y1="46.0844" x2="48.1549" y2="46.0844" gradientUnits="userSpaceOnUse"><stop stop-color="#D6001C"></stop><stop offset="1" stop-color="#6A1F7A"></stop></linearGradient></defs></svg>