<svg xmlns="http://www.w3.org/2000/svg" width="60" height="62" viewBox="0 0 60 62" fill="none"><g id="Group 1672"><path id="Vector" d="M17 33.0002C7.62684 33.0002 0 25.5977 0 16.5002C0 7.40277 7.62684 0.000244141 17 0.000244141C26.3731 0.000244141 34 7.40277 34 16.5002C34 25.5977 26.3731 33.0002 17 33.0002Z" fill="url(#paint0_linear_4475_4114)"></path><path id="Vector_2" d="M14.2703 9.18671L25.2088 15.1685C26.2637 15.7465 26.2637 17.2492 25.2088 17.8271L14.2703 23.809C13.2494 24.3677 12 23.6356 12 22.4797V10.5208C12 9.36491 13.2494 8.63283 14.2703 9.19152V9.18671Z" fill="white"></path><path id="Vector_3" d="M43.1492 62.0002C43.1492 62.0002 43.1165 62.0002 43.1025 62.0002C42.3824 61.986 41.7232 61.6388 41.293 61.049L37.4263 55.7461L18.9157 55.7556C14.5534 55.7556 11 52.1459 11 47.7038V38.4772C11 37.8209 11.5237 37.2882 12.1689 37.2882C12.8141 37.2882 13.3378 37.8209 13.3378 38.4772V47.7038C13.3378 50.8332 15.8392 53.3777 18.9157 53.3777H37.4497C38.1791 53.3777 38.8711 53.7344 39.3059 54.3289L43.1726 59.6318L47.3947 54.2528C47.8342 53.6963 48.4934 53.3777 49.1948 53.3777H52.0843C55.1608 53.3777 57.6622 50.8332 57.6622 47.7038V28.0521C57.6622 24.9227 55.1608 22.3782 52.0843 22.3782H38.7495C38.1043 22.3782 37.5806 21.8456 37.5806 21.1892C37.5806 20.5329 38.1043 20.0002 38.7495 20.0002H52.0843C56.4466 20.0002 60 23.61 60 28.0521V47.7038C60 52.1411 56.4512 55.7556 52.0843 55.7556H49.1948L44.954 61.1204C44.5098 61.6768 43.8599 61.9955 43.1539 61.9955L43.1492 62.0002Z" fill="#28292B"></path><path id="Vector_4" d="M35.5 41.0002C37.433 41.0002 39 39.6571 39 38.0002C39 36.3434 37.433 35.0002 35.5 35.0002C33.567 35.0002 32 36.3434 32 38.0002C32 39.6571 33.567 41.0002 35.5 41.0002Z" fill="url(#paint1_linear_4475_4114)"></path><path id="Vector_5" d="M23 41.0002C24.6569 41.0002 26 39.6571 26 38.0002C26 36.3434 24.6569 35.0002 23 35.0002C21.3431 35.0002 20 36.3434 20 38.0002C20 39.6571 21.3431 41.0002 23 41.0002Z" fill="url(#paint2_linear_4475_4114)"></path><path id="Vector_6" d="M48 41.0002C49.6569 41.0002 51 39.6571 51 38.0002C51 36.3434 49.6569 35.0002 48 35.0002C46.3431 35.0002 45 36.3434 45 38.0002C45 39.6571 46.3431 41.0002 48 41.0002Z" fill="url(#paint3_linear_4475_4114)"></path></g><defs><linearGradient id="paint0_linear_4475_4114" x1="29.5741" y1="20.036" x2="0.586206" y2="20.036" gradientUnits="userSpaceOnUse"><stop stop-color="#D6001C"></stop><stop offset="1" stop-color="#6A1F7A"></stop></linearGradient><linearGradient id="paint1_linear_4475_4114" x1="38.0888" y1="38.6431" x2="32.1207" y2="38.6431" gradientUnits="userSpaceOnUse"><stop stop-color="#D6001C"></stop><stop offset="1" stop-color="#6A1F7A"></stop></linearGradient><linearGradient id="paint2_linear_4475_4114" x1="25.219" y1="38.6431" x2="20.1034" y2="38.6431" gradientUnits="userSpaceOnUse"><stop stop-color="#D6001C"></stop><stop offset="1" stop-color="#6A1F7A"></stop></linearGradient><linearGradient id="paint3_linear_4475_4114" x1="50.219" y1="38.6431" x2="45.1034" y2="38.6431" gradientUnits="userSpaceOnUse"><stop stop-color="#D6001C"></stop><stop offset="1" stop-color="#6A1F7A"></stop></linearGradient></defs></svg>