<svg xmlns="http://www.w3.org/2000/svg" width="72" height="72" viewBox="0 0 72 72" fill="none"><path d="M65.8214 54.5002H19.4106C17.5693 54.5002 15.9505 53.4507 15.1884 51.7571C14.4264 50.0636 14.7056 48.1458 15.9221 46.748L19.5006 42.6214V20.3045L14.8429 9.88555H4.18334C3.53014 9.88555 3 9.35124 3 8.6929C3 8.03455 3.53014 7.50024 4.18334 7.50024H15.605C16.0689 7.50024 16.4949 7.77694 16.6842 8.20152L21.7584 19.5556C21.8294 19.7082 21.8625 19.8752 21.8625 20.0469V43.0651C21.8625 43.3561 21.7584 43.6328 21.569 43.8523L17.6971 48.3175C17.096 49.0141 16.9587 49.93 17.3374 50.7696C17.7161 51.6093 18.4876 52.1149 19.4059 52.1149H65.8167C66.4699 52.1149 67 52.6493 67 53.3076C67 53.9659 66.4699 54.5002 65.8167 54.5002H65.8214Z" fill="#0F0F1A"></path><path d="M60.719 47.4955H30.1988C29.537 47.4955 29 46.9616 29 46.3037C29 45.6459 29.537 45.112 30.1988 45.112H60.2491L66.6025 39.2868V22.8837H53.234C52.5723 22.8837 52.0352 22.3498 52.0352 21.692C52.0352 21.0341 52.5723 20.5002 53.234 20.5002H67.8012C68.463 20.5002 69 21.0341 69 21.692V39.8112C69 40.1448 68.8609 40.4595 68.6164 40.6883L61.5342 47.1856C61.3136 47.3906 61.0211 47.5002 60.719 47.5002V47.4955Z" fill="#28292B"></path><path d="M31.2075 41.4954C30.9897 41.4954 30.772 41.4379 30.5735 41.318C30.0073 40.9678 29.8283 40.229 30.1815 39.6678L46.7617 13.0687C47.115 12.5075 47.8602 12.33 48.4265 12.6802C48.9927 13.0304 49.1717 13.7691 48.8185 14.3303L32.2383 40.9294C32.0109 41.294 31.614 41.5002 31.2075 41.5002V41.4954Z" fill="#28292B"></path><path d="M31.5 23.5002C34.5376 23.5002 37 21.2617 37 18.5002C37 15.7388 34.5376 13.5002 31.5 13.5002C28.4624 13.5002 26 15.7388 26 18.5002C26 21.2617 28.4624 23.5002 31.5 23.5002Z" fill="url(#paint0_linear_4475_3445)"></path><path d="M47 39.5002C49.7614 39.5002 52 37.2617 52 34.5003C52 31.7388 49.7614 29.5002 47 29.5002C44.2386 29.5002 42 31.7388 42 34.5003C42 37.2617 44.2386 39.5002 47 39.5002Z" fill="url(#paint1_linear_4475_3445)"></path><path d="M56 64.5002C58.2091 64.5002 60 62.4855 60 60.0002C60 57.515 58.2091 55.5002 56 55.5002C53.7909 55.5002 52 57.515 52 60.0002C52 62.4855 53.7909 64.5002 56 64.5002Z" fill="url(#paint2_linear_4475_3445)"></path><path d="M29 64.5002C31.2091 64.5002 33 62.4855 33 60.0002C33 57.515 31.2091 55.5002 29 55.5002C26.7909 55.5002 25 57.515 25 60.0002C25 62.4855 26.7909 64.5002 29 64.5002Z" fill="url(#paint3_linear_4475_3445)"></path><defs><linearGradient id="paint0_linear_4475_3445" x1="35.5681" y1="19.5717" x2="26.1897" y2="19.5717" gradientUnits="userSpaceOnUse"><stop stop-color="#D6001C"></stop><stop offset="1" stop-color="#6A1F7A"></stop></linearGradient><linearGradient id="paint1_linear_4475_3445" x1="50.6983" y1="35.5717" x2="42.1724" y2="35.5717" gradientUnits="userSpaceOnUse"><stop stop-color="#D6001C"></stop><stop offset="1" stop-color="#6A1F7A"></stop></linearGradient><linearGradient id="paint2_linear_4475_3445" x1="58.9586" y1="60.9645" x2="52.1379" y2="60.9645" gradientUnits="userSpaceOnUse"><stop stop-color="#D6001C"></stop><stop offset="1" stop-color="#6A1F7A"></stop></linearGradient><linearGradient id="paint3_linear_4475_3445" x1="31.9586" y1="60.9645" x2="25.1379" y2="60.9645" gradientUnits="userSpaceOnUse"><stop stop-color="#D6001C"></stop><stop offset="1" stop-color="#6A1F7A"></stop></linearGradient></defs></svg>