<svg xmlns="http://www.w3.org/2000/svg" width="62" height="62" viewBox="0 0 62 62" fill="none"><g id="Group 1676"><path id="Vector" d="M15.9993 39.8442C16.0981 39.7025 5.12223 37.2461 1.88677 36.5281C1.3681 36.4147 0.834623 36.6556 0.59752 37.1091L0.118373 38.0303C-0.138488 38.531 0.0343956 39.1357 0.52342 39.438L11.8846 46.5002" fill="url(#paint0_linear_4475_2320)"></path><path id="Vector_2" d="M21.656 46.5009C21.7977 46.4082 24.2541 56.6981 24.9722 59.7314C25.0856 60.2176 24.8446 60.7178 24.3911 60.9401L23.47 61.3893C22.9692 61.6301 22.3646 61.468 22.0623 61.0095L15 50.3584" fill="url(#paint1_linear_4475_2320)"></path><path id="Vector_3" d="M11.5443 52.5002C10.8817 52.5002 10.2381 52.2474 9.74711 51.7652C8.99867 51.0348 8.79368 49.9486 9.21795 48.9982C14.2997 37.6118 45.8483 7.33863 47.1879 6.05111C48.1747 5.08196 49.252 4.21581 50.3818 3.48543C55.3063 0.301739 58.9579 -0.349045 60.941 1.59863C62.8001 3.42457 62.209 6.79086 59.1867 11.6085C58.3572 12.9335 57.3513 14.1742 56.2072 15.2979C54.9154 16.5901 24.2391 47.2144 12.5883 52.2802C12.2498 52.4253 11.8923 52.5002 11.5443 52.5002ZM57.9806 2.83933C56.5505 2.83933 54.3147 3.74762 51.688 5.44247C50.6917 6.08389 49.743 6.85172 48.8564 7.71787C48.5227 8.04092 16.2923 38.9696 11.3965 49.9392C11.3822 49.9767 11.3536 50.0376 11.4251 50.1078C11.5109 50.1874 11.5872 50.1546 11.6206 50.1406C22.8566 45.2527 54.1955 13.9682 54.5102 13.6545C55.5303 12.6526 56.417 11.5523 57.1511 10.3819C59.3154 6.93131 60.1401 4.13153 59.2487 3.25602C58.9626 2.9751 58.5288 2.83933 57.9758 2.83933H57.9806Z" fill="#28292B"></path><path id="Vector_4" d="M27.8406 28.4954C27.6235 28.4954 27.4063 28.4322 27.2122 28.3011L20.5264 23.7345C19.9904 23.3702 19.8379 22.6172 20.1891 22.0537C20.5356 21.4901 21.2518 21.3298 21.7878 21.699L28.4736 26.2656C29.0096 26.6299 29.1621 27.3829 28.8109 27.9464C28.5891 28.3059 28.2195 28.5002 27.8406 28.5002V28.4954Z" fill="#28292B"></path><path id="Vector_5" d="M38.817 17.5002C38.727 17.5002 38.6371 17.4908 38.5471 17.4673L7.003 10.0962L6.5247 12.1921L11.2745 15.263C11.8239 15.6163 11.9802 16.3463 11.6203 16.8927C11.2651 17.439 10.531 17.5944 9.98171 17.2365L4.54047 13.7229C4.12373 13.4544 3.9201 12.9551 4.02902 12.4747L4.95247 8.41946C5.02351 8.11331 5.21293 7.84955 5.47813 7.67999C5.74332 7.51044 6.07008 7.45863 6.3779 7.53399L39.0869 15.1782C39.7215 15.3289 40.1193 15.9601 39.9678 16.5912C39.8399 17.1329 39.3521 17.5002 38.817 17.5002Z" fill="#28292B"></path><path id="Vector_6" d="M9.18721 29.5002C8.88389 29.5002 8.58057 29.3865 8.34834 29.1542C7.88389 28.6897 7.88389 27.9407 8.34834 27.4762L18.9739 16.8486C19.4384 16.3841 20.1872 16.3841 20.6517 16.8486C21.1161 17.3132 21.1161 18.0621 20.6517 18.5267L10.0261 29.1542C9.79384 29.3865 9.49052 29.5002 9.18721 29.5002Z" fill="url(#paint2_linear_4475_2320)"></path><path id="Vector_7" d="M2.20749 29.5002C1.89899 29.5002 1.59049 29.3845 1.35429 29.1483C0.881902 28.6758 0.881902 27.914 1.35429 27.4415L9.9393 18.8546C10.4117 18.3821 11.1733 18.3821 11.6457 18.8546C12.1181 19.3271 12.1181 20.0889 11.6457 20.5614L3.06069 29.1483C2.82449 29.3845 2.51599 29.5002 2.20749 29.5002Z" fill="url(#paint3_linear_4475_2320)"></path><path id="Vector_8" d="M39.788 42.5002C39.3893 42.5002 39.0002 42.3154 38.7668 41.9733L34.1956 35.2854C33.8309 34.7492 33.9914 34.0328 34.5506 33.6862C35.1147 33.3395 35.8685 33.492 36.2332 34.0236L40.8044 40.7115C41.1691 41.2477 41.0086 41.9641 40.4494 42.3107C40.2451 42.4355 40.0166 42.4956 39.788 42.4956V42.5002Z" fill="#28292B"></path><path id="Vector_9" d="M49.7652 58.5002C49.3743 58.5002 48.9975 58.3014 48.7761 57.9604L45.2628 52.5196C44.9096 51.9703 45.065 51.2363 45.6066 50.8812C46.1529 50.526 46.8829 50.6823 47.2361 51.2268L50.3068 55.9763L52.4025 55.4981L45.032 23.9516C44.8813 23.317 45.277 22.6778 45.908 22.531C46.5391 22.3842 47.1749 22.7772 47.3256 23.4117L54.9692 56.1184C55.0398 56.4262 54.988 56.7482 54.8232 57.0181C54.6584 57.288 54.3899 57.4774 54.0838 57.5437L50.0289 58.4671C49.9441 58.486 49.8546 58.4955 49.7699 58.4955L49.7652 58.5002Z" fill="#28292B"></path><path id="Vector_10" d="M34.1872 53.5002C33.8839 53.5002 33.5806 53.3865 33.3483 53.1542C32.8839 52.6897 32.8839 51.9407 33.3483 51.4762L43.9739 40.8486C44.4384 40.3841 45.1872 40.3841 45.6517 40.8486C46.1161 41.3132 46.1161 42.0621 45.6517 42.5267L35.0261 53.1542C34.7938 53.3865 34.4905 53.5002 34.1872 53.5002Z" fill="url(#paint4_linear_4475_2320)"></path><path id="Vector_11" d="M33.2075 60.5002C32.899 60.5002 32.5905 60.3845 32.3543 60.1483C31.8819 59.6758 31.8819 58.914 32.3543 58.4415L40.9393 49.8546C41.4117 49.3821 42.1733 49.3821 42.6457 49.8546C43.1181 50.3271 43.1181 51.0889 42.6457 51.5614L34.0607 60.1483C33.8245 60.3845 33.516 60.5002 33.2075 60.5002Z" fill="url(#paint5_linear_4475_2320)"></path></g><defs><linearGradient id="paint0_linear_4475_2320" x1="13.9172" y1="42.5717" x2="0.275862" y2="42.5717" gradientUnits="userSpaceOnUse"><stop stop-color="#D6001C"></stop><stop offset="1" stop-color="#6A1F7A"></stop></linearGradient><linearGradient id="paint1_linear_4475_2320" x1="23.6983" y1="55.6074" x2="15.1724" y2="55.6074" gradientUnits="userSpaceOnUse"><stop stop-color="#D6001C"></stop><stop offset="1" stop-color="#6A1F7A"></stop></linearGradient><linearGradient id="paint2_linear_4475_2320" x1="19.3078" y1="24.3931" x2="8.22414" y2="24.3931" gradientUnits="userSpaceOnUse"><stop stop-color="#D6001C"></stop><stop offset="1" stop-color="#6A1F7A"></stop></linearGradient><linearGradient id="paint3_linear_4475_2320" x1="10.5681" y1="25.1788" x2="1.18965" y2="25.1788" gradientUnits="userSpaceOnUse"><stop stop-color="#D6001C"></stop><stop offset="1" stop-color="#6A1F7A"></stop></linearGradient><linearGradient id="paint4_linear_4475_2320" x1="44.3078" y1="48.3931" x2="33.2241" y2="48.3931" gradientUnits="userSpaceOnUse"><stop stop-color="#D6001C"></stop><stop offset="1" stop-color="#6A1F7A"></stop></linearGradient><linearGradient id="paint5_linear_4475_2320" x1="41.5681" y1="56.1788" x2="32.1897" y2="56.1788" gradientUnits="userSpaceOnUse"><stop stop-color="#D6001C"></stop><stop offset="1" stop-color="#6A1F7A"></stop></linearGradient></defs></svg>