<svg xmlns="http://www.w3.org/2000/svg" width="72" height="72" viewBox="0 0 72 72" fill="none"><path d="M19.7716 35.4855C19.5596 35.6975 19.2741 35.8143 18.9799 35.8143C18.9453 35.8143 18.9064 35.8143 18.8675 35.81C18.5344 35.7754 18.2316 35.598 18.0456 35.3167L16.2547 32.6297C15.9129 32.1148 16.0513 31.4182 16.5661 31.0763C17.0809 30.7302 17.7774 30.873 18.1191 31.3879L19.1529 32.9369L24.1926 27.8917C23.1457 26.81 21.6836 26.135 20.0614 26.135C16.8863 26.135 14.3124 28.7095 14.3124 31.8855C14.3124 35.0614 16.8863 37.636 20.0614 37.636C23.2365 37.636 25.8104 35.0614 25.8104 31.8855C25.8104 31.1585 25.6719 30.4662 25.4254 29.8302L19.7716 35.4855Z" fill="url(#paint0_linear_3586_1332)"></path><path d="M19.7716 53.663C19.5596 53.875 19.2741 53.9918 18.9799 53.9918C18.9453 53.9918 18.9064 53.9918 18.8675 53.9875C18.5344 53.9529 18.2316 53.7755 18.0456 53.4942L16.2547 50.8072C15.9129 50.2923 16.0513 49.5956 16.5661 49.2538C17.0809 48.9077 17.7774 49.0504 18.1191 49.5653L19.1529 51.1144L24.1926 46.0692C23.1457 44.9875 21.6836 44.3125 20.0614 44.3125C16.8863 44.3125 14.3124 46.887 14.3124 50.0629C14.3124 53.2389 16.8863 55.8135 20.0614 55.8135C23.2365 55.8135 25.8104 53.2389 25.8104 50.0629C25.8104 49.336 25.6719 48.6437 25.4254 48.0077L19.7716 53.663Z" fill="url(#paint1_linear_3586_1332)"></path><path d="M36.0022 63.0479H11.8252C9.25569 63.0479 7.16199 60.9536 7.16199 58.3834V13.6171C7.16199 11.0469 9.25569 8.95264 11.8252 8.95264H60.1748C62.7443 8.95264 64.838 11.0469 64.838 13.6171V52.8666C64.838 53.4637 64.3535 53.9483 63.7566 53.9483C63.1596 53.9483 62.6751 53.4637 62.6751 52.8666V13.6171C62.6751 12.2368 61.5547 11.1161 60.1748 11.1161H11.8252C10.4453 11.1161 9.32489 12.2368 9.32489 13.6171V58.3834C9.32489 59.7637 10.4453 60.8844 11.8252 60.8844H36.0022C36.5992 60.8844 37.0837 61.369 37.0837 61.9661C37.0837 62.5633 36.5992 63.0479 36.0022 63.0479Z" fill="#28292B"></path><path d="M44.0597 16.2306H42.2688C41.6719 16.2306 41.1874 15.746 41.1874 15.1489C41.1874 14.5518 41.6719 14.0671 42.2688 14.0671H44.0597C44.6566 14.0671 45.1411 14.5518 45.1411 15.1489C45.1411 15.746 44.6566 16.2306 44.0597 16.2306Z" fill="#28292B"></path><path d="M50.964 16.2306H49.1731C48.5762 16.2306 48.0917 15.746 48.0917 15.1489C48.0917 14.5518 48.5762 14.0671 49.1731 14.0671H50.964C51.5609 14.0671 52.0454 14.5518 52.0454 15.1489C52.0454 15.746 51.5609 16.2306 50.964 16.2306Z" fill="#28292B"></path><path d="M57.8722 16.2306H56.0813C55.4844 16.2306 54.9999 15.746 54.9999 15.1489C54.9999 14.5518 55.4844 14.0671 56.0813 14.0671H57.8722C58.4691 14.0671 58.9536 14.5518 58.9536 15.1489C58.9536 15.746 58.4691 16.2306 57.8722 16.2306Z" fill="#28292B"></path><path d="M58.1282 30.0465H31.2649C30.668 30.0465 30.1835 29.5619 30.1835 28.9648C30.1835 28.3677 30.668 27.8831 31.2649 27.8831H58.1282C58.7252 27.8831 59.2097 28.3677 59.2097 28.9648C59.2097 29.5619 58.7252 30.0465 58.1282 30.0465Z" fill="url(#paint2_linear_3586_1332)"></path><path d="M50.0693 35.161H31.2649C30.668 35.161 30.1835 34.6764 30.1835 34.0793C30.1835 33.4822 30.668 32.9976 31.2649 32.9976H50.0693C50.6663 32.9976 51.1508 33.4822 51.1508 34.0793C51.1508 34.6764 50.6663 35.161 50.0693 35.161Z" fill="url(#paint3_linear_3586_1332)"></path><path d="M50.0693 49.1024H31.2649C30.668 49.1024 30.1835 48.6178 30.1835 48.0207C30.1835 47.4236 30.668 46.939 31.2649 46.939H50.0693C50.6663 46.939 51.1508 47.4236 51.1508 48.0207C51.1508 48.6178 50.6663 49.1024 50.0693 49.1024Z" fill="url(#paint4_linear_3586_1332)"></path><path d="M53.651 54.2211H31.2649C30.668 54.2211 30.1835 53.7365 30.1835 53.1393C30.1835 52.5422 30.668 52.0576 31.2649 52.0576H53.651C54.2479 52.0576 54.7324 52.5422 54.7324 53.1393C54.7324 53.7365 54.2479 54.2211 53.651 54.2211Z" fill="url(#paint5_linear_3586_1332)"></path><defs><linearGradient id="paint0_linear_3586_1332" x1="24.3137" y1="33.1177" x2="14.5106" y2="33.1177" gradientUnits="userSpaceOnUse"><stop stop-color="#D6001C"></stop><stop offset="1" stop-color="#6A1F7A"></stop></linearGradient><linearGradient id="paint1_linear_3586_1332" x1="24.3137" y1="51.2952" x2="14.5106" y2="51.2952" gradientUnits="userSpaceOnUse"><stop stop-color="#D6001C"></stop><stop offset="1" stop-color="#6A1F7A"></stop></linearGradient><linearGradient id="paint2_linear_3586_1332" x1="55.4313" y1="29.1966" x2="30.6839" y2="29.1966" gradientUnits="userSpaceOnUse"><stop stop-color="#D6001C"></stop><stop offset="1" stop-color="#6A1F7A"></stop></linearGradient><linearGradient id="paint3_linear_3586_1332" x1="48.4214" y1="34.3111" x2="30.545" y2="34.3111" gradientUnits="userSpaceOnUse"><stop stop-color="#D6001C"></stop><stop offset="1" stop-color="#6A1F7A"></stop></linearGradient><linearGradient id="paint4_linear_3586_1332" x1="48.4214" y1="48.2525" x2="30.545" y2="48.2525" gradientUnits="userSpaceOnUse"><stop stop-color="#D6001C"></stop><stop offset="1" stop-color="#6A1F7A"></stop></linearGradient><linearGradient id="paint5_linear_3586_1332" x1="51.5368" y1="53.3711" x2="30.6067" y2="53.3711" gradientUnits="userSpaceOnUse"><stop stop-color="#D6001C"></stop><stop offset="1" stop-color="#6A1F7A"></stop></linearGradient></defs></svg>