<svg xmlns="http://www.w3.org/2000/svg" width="72" height="72" viewBox="0 0 72 72" fill="none"><path d="M23.0469 49.7923H16.3807C13.1407 49.7923 11.9684 47.1529 11.9684 45.3788V41.7529C11.1292 41.1341 10.2771 40.9048 9.71904 40.9048C7.29659 40.9048 6.41406 38.9274 6.41406 37.6033C6.41406 37.4216 6.46167 37.2399 6.54819 37.0798L11.9684 27.2577V25.3841C11.9684 16.211 19.4304 8.74707 28.6011 8.74707H33.0438C34.3718 8.74707 36.3487 9.62544 36.3487 12.0528V17.6086C36.3487 18.2057 35.8642 18.6903 35.2673 18.6903C34.6703 18.6903 34.1858 18.2057 34.1858 17.6086V12.0528C34.1858 10.9928 33.312 10.9105 33.0438 10.9105H28.6011C20.6244 10.9105 14.1313 17.4009 14.1313 25.3841V27.5389C14.1313 27.7206 14.0837 27.9024 13.9972 28.0625L8.59862 37.8457C8.67215 38.2957 8.94039 38.7456 9.71904 38.7456C11.0644 38.7456 12.5783 39.3774 13.7679 40.4331C14.0015 40.6365 14.1313 40.9351 14.1313 41.2423V45.3832C14.1616 47.4731 15.8616 47.6332 16.3807 47.6332H23.0469C23.5616 47.6202 24.1888 47.4125 24.1888 46.4952V39.8274C24.1888 39.2302 24.6733 38.7456 25.2703 38.7456C25.8673 38.7456 26.3517 39.2302 26.3517 39.8274V46.4952C26.3517 48.9183 24.3749 49.7966 23.0469 49.7966V49.7923Z" fill="#0F0F1A"></path><path d="M50.4648 63.2533H27.14C26.5431 63.2533 26.0586 62.7687 26.0586 62.1716V57.7278C26.0586 57.1307 26.5431 56.6461 27.14 56.6461C27.737 56.6461 28.2215 57.1307 28.2215 57.7278V61.0899H49.3833V54.3961C49.3833 53.799 49.8678 53.3144 50.4648 53.3144C51.888 53.3144 53.0603 52.5702 53.9514 51.1077C54.5743 50.0865 54.8598 49.0351 54.9377 48.7192V46.6163C54.9247 46.1014 54.717 45.474 53.7956 45.474H41.5752C40.9782 45.474 40.4938 44.9894 40.4938 44.3923C40.4938 43.7952 40.9782 43.3105 41.5752 43.3105H53.7956C56.2181 43.3105 57.1006 45.288 57.1006 46.6163V48.8404C57.1006 48.9139 57.0919 48.9832 57.0789 49.0524C56.6723 51.0731 55.0198 54.738 51.5462 55.3784V62.1716C51.5462 62.7687 51.0617 63.2533 50.4648 63.2533Z" fill="#0F0F1A"></path><path d="M23.0475 29.7933H19.7165C18.6524 29.7933 17.5234 29.023 17.5234 27.5995V26.4875C17.5234 25.8904 18.0079 25.4058 18.6049 25.4058C19.2019 25.4058 19.6863 25.8904 19.6863 26.4875V27.5995C19.6863 27.5995 19.6863 27.6125 19.6863 27.6168C19.708 27.6211 19.7295 27.6255 19.7425 27.6255H23.0475C23.0475 27.6255 23.0604 27.6255 23.069 27.6255C23.0734 27.6038 23.0777 27.5822 23.0777 27.5692V26.4875C23.0777 25.8904 23.5622 25.4058 24.1592 25.4058C24.7561 25.4058 25.2406 25.8904 25.2406 26.4875V27.5995C25.2406 28.6639 24.4707 29.7933 23.0475 29.7933Z" fill="#28292B"></path><path d="M35.2633 20.7717C37.0074 20.7717 38.4211 19.3575 38.4211 17.613C38.4211 15.8685 37.0074 14.4543 35.2633 14.4543C33.5193 14.4543 32.1055 15.8685 32.1055 17.613C32.1055 19.3575 33.5193 20.7717 35.2633 20.7717Z" fill="url(#paint0_linear_3586_1446)"></path><path d="M25.2672 40.3813C27.0113 40.3813 28.4251 38.9671 28.4251 37.2226C28.4251 35.4781 27.0113 34.064 25.2672 34.064C23.5232 34.064 22.1094 35.4781 22.1094 37.2226C22.1094 38.9671 23.5232 40.3813 25.2672 40.3813Z" fill="url(#paint1_linear_3586_1446)"></path><path d="M41.5797 47.5553C43.3238 47.5553 44.7376 46.1412 44.7376 44.3967C44.7376 42.6522 43.3238 41.238 41.5797 41.238C39.8357 41.238 38.4219 42.6522 38.4219 44.3967C38.4219 46.1412 39.8357 47.5553 41.5797 47.5553Z" fill="url(#paint2_linear_3586_1446)"></path><path d="M62.3712 25.373L65.5761 24.0462L63.8587 19.9017L60.6539 21.2285C60.0103 20.3253 59.2288 19.5536 58.3487 18.9264L59.6786 15.7178L55.5347 14.0002L54.2081 17.2088C53.1442 17.0314 52.0474 17.0248 50.954 17.2088L49.6274 14.0035L45.4834 15.7211L46.81 18.9264C45.907 19.57 45.1353 20.3516 44.5081 21.2317L41.3033 19.9017L39.5859 24.0462L42.7941 25.373C42.6168 26.437 42.6102 27.5339 42.7941 28.6275L39.5892 29.9543L41.3066 34.0988L44.5114 32.772C45.155 33.6751 45.9365 34.4469 46.8166 35.0741L45.4899 38.2827L49.6339 40.0002L50.9605 36.7917C52.0244 36.969 53.1212 36.9756 54.2179 36.7917L55.5445 39.997L59.6885 38.2794L58.3619 35.0741C59.2649 34.4305 60.0366 33.6488 60.6637 32.7687L63.8686 34.0955L65.5859 29.951L62.3778 28.6209C62.5551 27.5569 62.5617 26.46 62.3778 25.3664L62.3712 25.373ZM57.0813 28.8672C56.5821 30.0692 55.6463 31.0085 54.4445 31.5076C53.837 31.7605 53.2066 31.8787 52.586 31.8787C50.6716 31.8787 48.8524 30.7457 48.0742 28.8672C47.5751 27.6652 47.5751 26.3385 48.0742 25.1365C48.5733 23.9345 49.5091 22.9953 50.7143 22.4961C51.9194 21.997 53.2427 21.997 54.4445 22.4961C55.6463 22.9953 56.5854 23.9313 57.0845 25.1365C57.5837 26.3385 57.5837 27.6652 57.0845 28.8672H57.0813Z" fill="url(#paint3_linear_3586_1446)"></path><defs><linearGradient id="paint0_linear_3586_1446" x1="37.599" y1="18.2899" x2="32.2144" y2="18.2899" gradientUnits="userSpaceOnUse"><stop stop-color="#D6001C"></stop><stop offset="1" stop-color="#6A1F7A"></stop></linearGradient><linearGradient id="paint1_linear_3586_1446" x1="27.603" y1="37.8995" x2="22.2183" y2="37.8995" gradientUnits="userSpaceOnUse"><stop stop-color="#D6001C"></stop><stop offset="1" stop-color="#6A1F7A"></stop></linearGradient><linearGradient id="paint2_linear_3586_1446" x1="43.9155" y1="45.0735" x2="38.5308" y2="45.0735" gradientUnits="userSpaceOnUse"><stop stop-color="#D6001C"></stop><stop offset="1" stop-color="#6A1F7A"></stop></linearGradient><linearGradient id="paint3_linear_3586_1446" x1="62.2015" y1="29.786" x2="40.0342" y2="29.786" gradientUnits="userSpaceOnUse"><stop stop-color="#D6001C"></stop><stop offset="1" stop-color="#6A1F7A"></stop></linearGradient></defs></svg>