<svg xmlns="http://www.w3.org/2000/svg" width="72" height="72" viewBox="0 0 72 72" fill="none"><path d="M63.2627 32.9259C62.6658 32.9259 62.1813 32.4413 62.1813 31.8442V8.30137C62.1813 8.24944 62.138 8.20619 62.0861 8.20619H15.7957C15.7437 8.20619 15.7005 8.24944 15.7005 8.30137V10.6552C15.7005 11.2524 15.216 11.737 14.619 11.737C14.0221 11.737 13.5376 11.2524 13.5376 10.6552V8.30137C13.5376 7.05521 14.5498 6.04272 15.7957 6.04272H62.0861C63.332 6.04272 64.3442 7.05521 64.3442 8.30137V31.8442C64.3442 32.4413 63.8597 32.9259 63.2627 32.9259Z" fill="#0F0F1A"></path><path d="M8.73624 58.4633C8.13928 58.4633 7.65479 57.9787 7.65479 57.3816V16.1849C7.65479 14.9388 8.66701 13.9263 9.91284 13.9263H56.2033C57.4491 13.9263 58.4614 14.9388 58.4614 16.1849V43.2585C58.4614 43.8556 57.9769 44.3403 57.3799 44.3403C56.783 44.3403 56.2985 43.8556 56.2985 43.2585V16.1849C56.2985 16.133 56.2552 16.0897 56.2033 16.0897H9.91284C9.86093 16.0897 9.81769 16.133 9.81769 16.1849V57.3816C9.81769 57.9787 9.3332 58.4633 8.73624 58.4633Z" fill="#0F0F1A"></path><path d="M50.7826 25.5053H9.10342C8.50646 25.5053 8.02197 25.0206 8.02197 24.4235C8.02197 23.8264 8.50646 23.3418 9.10342 23.3418H50.7826C51.3795 23.3418 51.864 23.8264 51.864 24.4235C51.864 25.0206 51.3795 25.5053 50.7826 25.5053Z" fill="#28292B"></path><path d="M14.6188 20.7931H12.2655C11.6686 20.7931 11.1841 20.3085 11.1841 19.7114C11.1841 19.1143 11.6686 18.6296 12.2655 18.6296H14.6188C15.2158 18.6296 15.7003 19.1143 15.7003 19.7114C15.7003 20.3085 15.2158 20.7931 14.6188 20.7931Z" fill="#28292B"></path><path d="M21.9821 20.7931H19.6288C19.0319 20.7931 18.5474 20.3085 18.5474 19.7114C18.5474 19.1143 19.0319 18.6296 19.6288 18.6296H21.9821C22.579 18.6296 23.0635 19.1143 23.0635 19.7114C23.0635 20.3085 22.579 20.7931 21.9821 20.7931Z" fill="#28292B"></path><path d="M29.3434 20.7931H26.9901C26.3932 20.7931 25.9087 20.3085 25.9087 19.7114C25.9087 19.1143 26.3932 18.6296 26.9901 18.6296H29.3434C29.9403 18.6296 30.4248 19.1143 30.4248 19.7114C30.4248 20.3085 29.9403 20.7931 29.3434 20.7931Z" fill="#28292B"></path><path d="M57.3788 54.3572C56.7819 54.3572 56.2974 53.8726 56.2974 53.2755V50.9216C56.2974 50.3245 56.7819 49.8398 57.3788 49.8398C57.9758 49.8398 58.4603 50.3245 58.4603 50.9216V53.2755C58.4603 53.8726 57.9758 54.3572 57.3788 54.3572Z" fill="#28292B"></path><path d="M63.2636 41.6231C62.6666 41.6231 62.1821 41.1385 62.1821 40.5414V36.0241C62.1821 35.427 62.6666 34.9424 63.2636 34.9424C63.8605 34.9424 64.345 35.427 64.345 36.0241V40.5414C64.345 41.1385 63.8605 41.6231 63.2636 41.6231Z" fill="#28292B"></path><path d="M45.9587 46.6855L50.1807 44.9375L47.9183 39.4769L43.6963 41.2249C42.8484 40.035 41.8189 39.0182 40.6596 38.1918L42.4115 33.9644L36.9524 31.7014L35.2047 35.9288C33.8032 35.6951 32.3583 35.6865 30.9178 35.9288L29.1702 31.7057L23.7111 33.9687L25.4587 38.1918C24.2691 39.0399 23.2525 40.0696 22.4263 41.2293L18.2043 39.4769L15.9419 44.9375L20.1682 46.6855C19.9346 48.0874 19.926 49.5326 20.1682 50.9735L15.9462 52.7216L18.2086 58.1822L22.4306 56.4341C23.2785 57.624 24.308 58.6408 25.4673 59.4673L23.7197 63.6947L29.1789 65.9577L30.9265 61.7302C32.3281 61.9639 33.7729 61.9726 35.2177 61.7302L36.9653 65.9533L42.4245 63.6904L40.6769 59.4673C41.8665 58.6192 42.883 57.5894 43.7093 56.4298L47.9313 58.1779L50.1937 52.7173L45.9673 50.9648C46.2009 49.5629 46.2096 48.1178 45.9673 46.6769L45.9587 46.6855ZM38.9898 51.2894C38.3323 52.873 37.0994 54.1105 35.5162 54.7682C34.7159 55.1014 33.8854 55.2572 33.0678 55.2572C30.5459 55.2572 28.1493 53.7644 27.1241 51.2894C26.4666 49.7057 26.4666 47.9576 27.1241 46.374C27.7816 44.7903 29.0145 43.5529 30.6021 42.8952C32.1896 42.2375 33.9329 42.2375 35.5162 42.8952C37.0994 43.5529 38.3366 44.786 38.9941 46.374C39.6517 47.9576 39.6517 49.7057 38.9941 51.2894H38.9898Z" fill="url(#paint0_linear_3586_2441)"></path><defs><linearGradient id="paint0_linear_3586_2441" x1="45.735" y1="52.4999" x2="16.5324" y2="52.4999" gradientUnits="userSpaceOnUse"><stop stop-color="#D6001C"></stop><stop offset="1" stop-color="#6A1F7A"></stop></linearGradient></defs></svg>