<svg xmlns="http://www.w3.org/2000/svg" width="20" height="20" viewBox="0 0 20 20" fill="none"><path opacity="0.6" d="M8.575 12.1502L6.225 9.80024C6.09167 9.66691 5.925 9.60024 5.725 9.60024C5.525 9.60024 5.35 9.67524 5.2 9.82524C5.05 9.97524 4.975 10.1502 4.975 10.3502C4.975 10.5502 5.05 10.7252 5.2 10.8752L7.95 13.6252C8.11667 13.7919 8.325 13.8752 8.575 13.8752C8.825 13.8752 9.04167 13.7919 9.225 13.6252L14.8 8.02524C14.9333 7.89191 15 7.72524 15 7.52524C15 7.32524 14.925 7.15024 14.775 7.00024C14.625 6.85024 14.45 6.77524 14.25 6.77524C14.05 6.77524 13.875 6.85024 13.725 7.00024L8.575 12.1502ZM10 19.5002C8.68333 19.5002 7.446 19.2502 6.288 18.7502C5.12933 18.2502 4.125 17.5752 3.275 16.7252C2.425 15.8752 1.75 14.8709 1.25 13.7122C0.75 12.5542 0.5 11.3169 0.5 10.0002C0.5 8.68358 0.75 7.44591 1.25 6.28724C1.75 5.12924 2.425 4.12524 3.275 3.27524C4.125 2.42524 5.12933 1.75024 6.288 1.25024C7.446 0.750244 8.68333 0.500244 10 0.500244C11.3167 0.500244 12.5543 0.750244 13.713 1.25024C14.871 1.75024 15.875 2.42524 16.725 3.27524C17.575 4.12524 18.25 5.12924 18.75 6.28724C19.25 7.44591 19.5 8.68358 19.5 10.0002C19.5 11.3169 19.25 12.5542 18.75 13.7122C18.25 14.8709 17.575 15.8752 16.725 16.7252C15.875 17.5752 14.871 18.2502 13.713 18.7502C12.5543 19.2502 11.3167 19.5002 10 19.5002Z" fill="#6A1F7A"></path></svg>