<svg xmlns="http://www.w3.org/2000/svg" width="72" height="72" viewBox="0 0 72 72" fill="none"><path d="M63.3111 57.7257H8.68904C6.00271 57.7257 3.81384 55.4455 3.81384 52.6459V14.4998C3.81384 11.7003 5.99838 9.41992 8.68904 9.41992H63.3111C65.9974 9.41992 68.1862 11.7003 68.1862 14.4998V52.6459C68.1862 55.4455 66.0017 57.7257 63.3111 57.7257ZM8.68904 11.5834C7.19231 11.5834 5.97675 12.8902 5.97675 14.4998V52.6459C5.97675 54.2512 7.19231 55.5623 8.68904 55.5623H63.3111C64.8078 55.5623 66.0232 54.2555 66.0232 52.6459V14.4998C66.0232 12.8945 64.8078 11.5834 63.3111 11.5834H8.68904Z" fill="#0F0F1A"></path><path d="M47.4528 62.5805H24.5476C23.9507 62.5805 23.4662 62.0958 23.4662 61.4987C23.4662 60.9016 23.9507 60.417 24.5476 60.417H47.4528C48.0497 60.417 48.5342 60.9016 48.5342 61.4987C48.5342 62.0958 48.0497 62.5805 47.4528 62.5805Z" fill="#0F0F1A"></path><path d="M21.138 25.0487H11.366C10.769 25.0487 10.2845 24.5641 10.2845 23.967C10.2845 23.3699 10.769 22.8853 11.366 22.8853H21.138C21.7349 22.8853 22.2194 23.3699 22.2194 23.967C22.2194 24.5641 21.7349 25.0487 21.138 25.0487Z" fill="#D6001C"></path><path d="M30.0621 20.1549H11.366C10.769 20.1549 10.2845 19.6703 10.2845 19.0732C10.2845 18.4761 10.769 17.9915 11.366 17.9915H30.0621C30.6591 17.9915 31.1436 18.4761 31.1436 19.0732C31.1436 19.6703 30.6591 20.1549 30.0621 20.1549Z" fill="url(#paint0_linear_3586_1918)"></path><path d="M57.1899 21.4314H53.8633C52.7142 21.4314 51.7826 22.3632 51.7826 23.5127V46.1901C51.7826 47.3396 52.7142 48.2713 53.8633 48.2713H57.1899C58.339 48.2713 59.2706 47.3396 59.2706 46.1901V23.5127C59.2706 22.3632 58.339 21.4314 57.1899 21.4314Z" fill="url(#paint1_linear_3586_1918)"></path><path d="M45.3715 27.3247H42.0449C40.8958 27.3247 39.9642 28.2565 39.9642 29.406V46.1901C39.9642 47.3396 40.8958 48.2714 42.0449 48.2714H45.3715C46.5206 48.2714 47.4522 47.3396 47.4522 46.1901V29.406C47.4522 28.2565 46.5206 27.3247 45.3715 27.3247Z" fill="url(#paint2_linear_3586_1918)"></path><path d="M34.5883 33.5728H31.2618C30.1126 33.5728 29.181 34.5045 29.181 35.654V46.1901C29.181 47.3395 30.1126 48.2713 31.2618 48.2713H34.5883C35.7374 48.2713 36.669 47.3395 36.669 46.1901V35.654C36.669 34.5045 35.7374 33.5728 34.5883 33.5728Z" fill="url(#paint3_linear_3586_1918)"></path><defs><linearGradient id="paint0_linear_3586_1918" x1="28.4283" y1="19.305" x2="10.6442" y2="19.305" gradientUnits="userSpaceOnUse"><stop stop-color="#D6001C"></stop><stop offset="1" stop-color="#6A1F7A"></stop></linearGradient><linearGradient id="paint1_linear_3586_1918" x1="58.2959" y1="37.7271" x2="51.9117" y2="37.7271" gradientUnits="userSpaceOnUse"><stop stop-color="#D6001C"></stop><stop offset="1" stop-color="#6A1F7A"></stop></linearGradient><linearGradient id="paint2_linear_3586_1918" x1="46.4775" y1="40.0423" x2="40.0933" y2="40.0423" gradientUnits="userSpaceOnUse"><stop stop-color="#D6001C"></stop><stop offset="1" stop-color="#6A1F7A"></stop></linearGradient><linearGradient id="paint3_linear_3586_1918" x1="35.6943" y1="42.4969" x2="29.3101" y2="42.4969" gradientUnits="userSpaceOnUse"><stop stop-color="#D6001C"></stop><stop offset="1" stop-color="#6A1F7A"></stop></linearGradient></defs></svg>