<svg xmlns="http://www.w3.org/2000/svg" width="72" height="72" viewBox="0 0 72 72" fill="none"><path d="M52.6536 59.2942C52.3767 59.2942 52.0998 59.1903 51.8879 58.9783C51.4639 58.5543 51.4639 57.8706 51.8879 57.4466L56.7804 52.5528L52.965 47.235C52.7141 46.8846 52.6925 46.4216 52.9131 46.0495C53.8691 44.4398 54.5915 42.6961 55.0587 40.8658C55.1668 40.4504 55.5086 40.1346 55.9325 40.0653L62.3909 39.0052V32.9994L55.9368 31.9394C55.5129 31.8701 55.1711 31.5543 55.063 31.1389C54.6045 29.3259 53.8907 27.5951 52.9433 25.9942C52.7271 25.6264 52.7444 25.1634 52.991 24.8173L56.789 19.4605L52.5367 15.2071L47.1814 19.0062C46.831 19.2528 46.3725 19.2701 46.0048 19.0538C44.4129 18.1105 42.6826 17.3965 40.8614 16.9292C40.4461 16.8211 40.1303 16.4793 40.0611 16.0552L39.0013 9.5951H32.08C31.483 9.5951 30.9985 9.11049 30.9985 8.51337C30.9985 7.91626 31.483 7.43164 32.08 7.43164H39.9183C40.4461 7.43164 40.9003 7.81672 40.9869 8.33595L42.0856 15.0168C43.6256 15.4624 45.1007 16.0725 46.4936 16.8384L52.0349 12.9095C52.4632 12.6023 53.0515 12.6543 53.4236 13.0264L58.9649 18.5691C59.3369 18.9413 59.3888 19.5297 59.0817 19.9581L55.1539 25.4966C55.9195 26.8942 56.5295 28.3696 56.975 29.91L63.6497 31.0047C64.1731 31.0913 64.5582 31.5413 64.5582 32.0735V39.9182C64.5582 40.4461 64.1731 40.9004 63.6541 40.987L56.975 42.086C56.5251 43.635 55.9109 45.1278 55.1366 46.5341L59.0817 52.0336C59.3888 52.4663 59.3412 53.0548 58.9692 53.4312L53.4279 58.974C53.2159 59.186 52.9391 59.2898 52.6622 59.2898L52.6536 59.2942Z" fill="#0F0F1A"></path><path d="M39.9157 64.5687H32.0773C31.5496 64.5687 31.0997 64.1879 31.0132 63.6687L29.8755 56.9706C28.3442 56.525 26.8691 55.9105 25.4719 55.1447L19.9737 59.0908C19.5412 59.398 18.9529 59.3504 18.5765 58.9783L13.0309 53.4356C12.6545 53.0591 12.6069 52.4706 12.9184 52.0379L16.8635 46.5384C16.0935 45.1408 15.4793 43.6653 15.0337 42.1336L8.34164 40.9913C7.82255 40.9004 7.44189 40.4504 7.44189 39.9269V32.0821C7.44189 31.5542 7.82255 31.1043 8.34164 31.0177L15.0337 29.8797C15.5442 28.1317 16.2666 26.4571 17.1923 24.8951C17.4951 24.3802 18.1612 24.2115 18.676 24.5143C19.1908 24.8172 19.3595 25.4836 19.0567 25.9985C18.118 27.5865 17.4042 29.2999 16.9457 31.0999C16.8375 31.5153 16.5001 31.8269 16.0805 31.8961L9.60913 32.9951V39.0095L16.0805 40.1129C16.5001 40.1865 16.8419 40.498 16.9457 40.9091C17.4085 42.7134 18.1267 44.4442 19.0827 46.0451C19.3033 46.4129 19.2816 46.8802 19.0307 47.2307L15.2154 52.5485L19.459 56.7932L24.7754 52.9769C25.1258 52.7259 25.5887 52.7043 25.9564 52.925C27.5569 53.8769 29.2829 54.5952 31.0911 55.0582C31.5064 55.1663 31.8178 55.5038 31.887 55.9235L32.9858 62.4009H38.9986L40.1017 55.9235C40.1753 55.5038 40.4867 55.1663 40.8977 55.0582C42.7059 54.5908 44.4362 53.8726 46.0367 52.9206C46.5515 52.6177 47.2134 52.7865 47.5205 53.2971C47.8276 53.812 47.6546 54.474 47.1442 54.7812C45.5696 55.7158 43.8825 56.4514 42.1219 56.9663L40.9799 63.6644C40.8934 64.1836 40.4391 64.5644 39.9157 64.5644V64.5687Z" fill="#0F0F1A"></path><path d="M15.6638 23.0344C15.3264 23.0344 14.9933 22.8786 14.7813 22.5801L12.9169 19.9709C12.6098 19.5425 12.6574 18.9498 13.0337 18.5776L18.5794 13.0348C18.9514 12.6627 19.5397 12.6108 19.968 12.918L25.5094 16.8469C27.1056 15.9685 28.8143 15.2978 30.6008 14.8392C31.1805 14.6921 31.7688 15.0426 31.9158 15.618C32.0629 16.1979 31.7126 16.7863 31.1372 16.9334C29.3204 17.3964 27.5901 18.1103 25.9982 19.0536C25.6305 19.2699 25.1676 19.2526 24.8216 19.006L19.4662 15.207L15.2182 19.456L16.5506 21.3209C16.8967 21.8055 16.7842 22.4805 16.2997 22.831C16.1094 22.9695 15.8888 23.0344 15.6725 23.0344H15.6638Z" fill="#28292B"></path><path d="M31.1215 50.7313C31.022 46.9106 28.2448 44.8899 27.5051 44.1716L27.4359 44.1024C24.9745 41.8048 23.4345 38.5379 23.4302 34.9033C23.4302 29.698 26.5881 25.2326 31.0955 23.3288V32.6663C31.0955 35.3404 33.2844 37.5298 35.9621 37.5298H36.0313C38.7089 37.5298 40.8978 35.3404 40.8978 32.6663V23.3245C45.4053 25.2326 48.5632 29.698 48.5632 34.9033C48.5632 38.5336 47.0232 41.8048 44.5618 44.098L44.4926 44.1673C43.7485 44.8856 40.9497 46.9106 40.8502 50.7269" fill="url(#paint0_linear_3586_1667)"></path><defs><linearGradient id="paint0_linear_3586_1667" x1="45.2915" y1="39.9643" x2="23.8635" y2="39.9643" gradientUnits="userSpaceOnUse"><stop stop-color="#D6001C"></stop><stop offset="1" stop-color="#6A1F7A"></stop></linearGradient></defs></svg>