<svg xmlns="http://www.w3.org/2000/svg" width="72" height="72" viewBox="0 0 72 72" fill="none"><path d="M20.1138 65.3455C13.5126 65.3455 4.76147 60.6594 4.76147 57.1243V48.9637C4.76147 46.6056 8.24806 44.2127 11.5097 42.7589C12.0548 42.5166 12.695 42.7589 12.9373 43.3084C13.1795 43.8536 12.9373 44.494 12.3879 44.7363C8.52493 46.4584 6.92438 48.3406 6.92438 48.968V57.1287C6.92438 58.6863 13.6294 63.1864 20.1138 63.1864C26.5981 63.1864 33.3031 58.6863 33.3031 57.1287V48.968C33.3031 48.3406 31.6983 46.4541 27.8267 44.732C27.2816 44.4897 27.0351 43.8493 27.2773 43.3041C27.5196 42.7589 28.1598 42.5123 28.7048 42.7546C31.9708 44.2084 35.466 46.6055 35.466 48.968V57.1287C35.466 60.6638 26.7149 65.3498 20.1138 65.3498V65.3455Z" fill="#0F0F1A"></path><path d="M20.1049 42.9059C14.8361 42.9059 10.865 38.6828 10.865 33.0794V30.1631C10.865 24.5641 14.8361 20.3367 20.1049 20.3367C25.3737 20.3367 29.3448 24.5597 29.3448 30.1631V33.0794C29.3448 38.6785 25.3737 42.9059 20.1049 42.9059ZM20.1049 22.5045C16.004 22.5045 13.0279 25.728 13.0279 30.1674V33.0838C13.0279 37.5232 16.004 40.7467 20.1049 40.7467C24.2058 40.7467 27.1819 37.5232 27.1819 33.0838V30.1674C27.1819 25.728 24.2058 22.5045 20.1049 22.5045Z" fill="#0F0F1A"></path><path fill-rule="evenodd" clip-rule="evenodd" d="M34.0942 6.65063H59.8414C63.9119 6.65063 67.2385 9.98236 67.2385 14.0497V27.4718C67.2385 31.5434 63.9076 34.8708 59.8414 34.8708H51.9901L43.0573 40.6776C42.3132 41.067 41.4524 40.4439 41.5821 39.6175L43.0832 34.8708H34.0942C33.6184 34.8708 33.1555 34.8189 32.7012 34.7324C33.2723 33.4343 33.5881 31.9631 33.5881 30.3838V27.4675C33.5881 22.7381 30.7503 18.991 26.697 17.9396V14.0497C26.697 9.97803 30.0279 6.65063 34.0942 6.65063ZM41.6082 27.6491C41.8202 27.8612 42.097 27.965 42.3738 27.965V27.9737C42.6507 27.9737 42.9276 27.8698 43.1395 27.6578C43.5634 27.2337 43.5634 26.5501 43.1395 26.1261L38.0913 21.0765L43.1395 16.027C43.5634 15.603 43.5634 14.9193 43.1395 14.4953C42.7156 14.0712 42.0321 14.0712 41.6082 14.4953L35.033 21.0722L41.6082 27.6491ZM54.6849 28.1424C54.4081 28.1424 54.1312 28.0385 53.9193 27.8265C53.4953 27.4024 53.4953 26.7188 53.9193 26.2948L58.9675 21.2452L53.9193 16.1957C53.4953 15.7716 53.4953 15.088 53.9193 14.664C54.3432 14.2399 55.0267 14.2399 55.4506 14.664L62.0258 21.2409L55.4506 27.8178C55.2387 28.0299 54.9618 28.1337 54.6849 28.1337V28.1424ZM46.6262 27.7703C46.7214 27.7963 46.8208 27.8093 46.916 27.8093C47.3918 27.8093 47.8244 27.4977 47.9585 27.0174L51.1423 15.5467C51.3024 14.9713 50.965 14.3742 50.3896 14.2141C49.8143 14.0583 49.2174 14.3915 49.0573 14.9669L45.8735 26.4376C45.7135 27.0131 46.0509 27.6102 46.6262 27.7703Z" fill="url(#paint0_linear_3586_1748)"></path><defs><linearGradient id="paint0_linear_3586_1748" x1="61.9611" y1="27.382" x2="27.396" y2="27.382" gradientUnits="userSpaceOnUse"><stop stop-color="#D6001C"></stop><stop offset="1" stop-color="#6A1F7A"></stop></linearGradient></defs></svg>