<svg width="20" height="20" viewBox="0 0 20 20" fill="none" xmlns="http://www.w3.org/2000/svg">
<path d="M10 0.015625C15.5312 0.015625 19.9844 4.46875 19.9844 10C19.9844 15.5312 15.5312 19.9844 10 19.9844C4.46875 19.9844 0.015625 15.5312 0.015625 10C0.015625 4.46875 4.46875 0.015625 10 0.015625ZM9.01562 17.9219V16C7.89062 16 7 15.1094 7 13.9844V13L2.21875 8.21875C2.07812 8.78125 1.98438 9.39062 1.98438 10C1.98438 14.0781 5.03125 17.4531 9.01562 17.9219ZM15.9062 15.3906C17.2188 13.9844 18.0156 12.0625 18.0156 10C18.0156 6.67188 15.9531 3.76562 13 2.59375V3.01562C13 4.09375 12.1094 4.98438 10.9844 4.98438H9.01562V7C9.01562 7.5625 8.54688 7.98438 7.98438 7.98438H6.01562V10H12.0156C12.5312 10 13 10.4688 13 10.9844V13.9844H13.9844C14.9219 13.9844 15.625 14.5938 15.9062 15.3906Z" fill="#28292B"/>
</svg>
