<?xml version="1.0" encoding="UTF-8"?>
<svg xmlns="http://www.w3.org/2000/svg" width="27" height="24" viewBox="0 0 27 24" fill="none">
  <path d="M15.582 0.75C21.4414 0.925781 26.3633 5.78906 26.4805 11.6484C26.6562 18.0352 21.5586 23.25 15.2305 23.25C12.6523 23.25 10.25 22.3711 8.375 20.8477C7.78906 20.4375 7.73047 19.5 8.25781 18.9727C8.72656 18.5625 9.37109 18.5039 9.89844 18.9141C11.3633 20.0859 13.2383 20.7305 15.2305 20.7305C20.1523 20.7305 24.0781 16.7461 24.0195 11.8828C23.9609 7.25391 20.0352 3.32812 15.3477 3.26953C10.4844 3.21094 6.5 7.13672 6.5 12H8.72656C9.3125 12 9.54688 12.7031 9.19531 13.0547L5.67969 16.5703C5.44531 16.8047 5.03516 16.8047 4.80078 16.5703L1.34375 13.0547C0.933594 12.7031 1.22656 12 1.75391 12H3.98047C3.98047 5.67188 9.19531 0.574219 15.582 0.75ZM14.9375 7.01953C15.4648 7.01953 15.875 7.42969 15.875 7.89844V12.1758L19.4492 14.2852C19.918 14.5781 20.0352 15.1641 19.8008 15.5742C19.5664 16.043 18.9805 16.1602 18.5117 15.9258L14.5859 13.6406C14.2344 13.4062 14 12.9961 14 12.5273V7.95703C14 7.42969 14.4102 7.01953 14.9375 7.01953Z" fill="#63666B"></path>
</svg>
