<svg xmlns="http://www.w3.org/2000/svg" width="72" height="72" viewBox="0 0 72 72" fill="none"><path d="M49.5438 64.255H12.1948C9.9064 64.255 8.04626 62.3945 8.04626 60.1098V11.8949C8.04626 9.60593 9.9064 7.74536 12.1948 7.74536H49.5438C51.8321 7.74536 53.6922 9.60593 53.6922 11.8949V14.5473C53.6922 15.1444 53.2078 15.629 52.6108 15.629C52.0138 15.629 51.5293 15.1444 51.5293 14.5473V11.8949C51.5293 10.8002 50.6382 9.90882 49.5438 9.90882H12.1948C11.1003 9.90882 10.2092 10.8002 10.2092 11.8949V60.1098C10.2092 61.2046 11.1003 62.0916 12.1948 62.0916H49.5438C50.6382 62.0916 51.5293 61.2002 51.5293 60.1098V59.2271C51.5293 58.63 52.0138 58.1454 52.6108 58.1454C53.2078 58.1454 53.6922 58.63 53.6922 59.2271V60.1098C53.6922 62.3988 51.8321 64.255 49.5438 64.255Z" fill="#0F0F1A"></path><path d="M26.3273 41.7983H16.6375C16.0405 41.7983 15.556 41.3137 15.556 40.7166V33.8151C15.556 33.218 16.0405 32.7334 16.6375 32.7334H26.3273C26.9243 32.7334 27.4088 33.218 27.4088 33.8151V40.7166C27.4088 41.3137 26.9243 41.7983 26.3273 41.7983ZM17.7189 39.6348H25.2458V34.8969H17.7189V39.6348Z" fill="#0F0F1A"></path><path d="M53.1815 25.0314H26.3269C25.73 25.0314 25.2455 24.5468 25.2455 23.9497C25.2455 23.3525 25.73 22.8679 26.3269 22.8679H53.1815C53.7785 22.8679 54.263 23.3525 54.263 23.9497C54.263 24.5468 53.7785 25.0314 53.1815 25.0314Z" fill="#28292B"></path><path d="M21.4383 34.8967C20.8413 34.8967 20.3568 34.4121 20.3568 33.815V27.4025C20.3568 26.8054 20.8413 26.3208 21.4383 26.3208C22.0352 26.3208 22.5197 26.8054 22.5197 27.4025V33.815C22.5197 34.4121 22.0352 34.8967 21.4383 34.8967Z" fill="#28292B"></path><path d="M34.8881 38.3453H26.323C25.7261 38.3453 25.2416 37.8607 25.2416 37.2636C25.2416 36.6665 25.7261 36.1819 26.323 36.1819H34.8881C35.4851 36.1819 35.9696 36.6665 35.9696 37.2636C35.9696 37.8607 35.4851 38.3453 34.8881 38.3453Z" fill="#28292B"></path><path d="M53.1809 38.3453H44.5769C43.98 38.3453 43.4955 37.8607 43.4955 37.2636C43.4955 36.6665 43.98 36.1819 44.5769 36.1819H53.1809C53.7779 36.1819 54.2624 36.6665 54.2624 37.2636C54.2624 37.8607 53.7779 38.3453 53.1809 38.3453Z" fill="#28292B"></path><path d="M39.7543 51.655H26.3269C25.73 51.655 25.2455 51.1704 25.2455 50.5732C25.2455 49.9761 25.73 49.4915 26.3269 49.4915H38.6728V40.7165C38.6728 40.1194 39.1573 39.6348 39.7543 39.6348C40.3512 39.6348 40.8357 40.1194 40.8357 40.7165V50.5732C40.8357 51.1704 40.3512 51.655 39.7543 51.655Z" fill="#28292B"></path><path d="M44.5773 41.7983H34.8875C34.2905 41.7983 33.806 41.3137 33.806 40.7166V33.8151C33.806 33.218 34.2905 32.7334 34.8875 32.7334H44.5773C45.1743 32.7334 45.6588 33.218 45.6588 33.8151V40.7166C45.6588 41.3137 45.1743 41.7983 44.5773 41.7983ZM35.9689 39.6348H43.4958V34.8969H35.9689V39.6348Z" fill="#28292B"></path><path d="M62.8723 41.7983H53.1824C52.5854 41.7983 52.101 41.3137 52.101 40.7166V33.8151C52.101 33.218 52.5854 32.7334 53.1824 32.7334H62.8723C63.4692 32.7334 63.9537 33.218 63.9537 33.8151V40.7166C63.9537 41.3137 63.4692 41.7983 62.8723 41.7983ZM54.2639 39.6348H61.7908V34.8969H54.2639V39.6348Z" fill="#28292B"></path><path d="M26.3273 55.1035H16.6375C16.0405 55.1035 15.556 54.6188 15.556 54.0217V47.1203C15.556 46.5232 16.0405 46.0386 16.6375 46.0386H26.3273C26.9243 46.0386 27.4088 46.5232 27.4088 47.1203V54.0217C27.4088 54.6188 26.9243 55.1035 26.3273 55.1035Z" fill="url(#paint0_linear_3586_1371)"></path><path d="M26.3273 28.0651H16.6375C16.0405 28.0651 15.556 27.5805 15.556 26.9834V20.082C15.556 19.4849 16.0405 19.0002 16.6375 19.0002H26.3273C26.9243 19.0002 27.4088 19.4849 27.4088 20.082V26.9834C27.4088 27.5805 26.9243 28.0651 26.3273 28.0651Z" fill="url(#paint1_linear_3586_1371)"></path><path d="M62.7711 28.0651H53.0813C52.4844 28.0651 51.9999 27.5805 51.9999 26.9834V20.082C51.9999 19.4849 52.4844 19.0002 53.0813 19.0002H62.7711C63.3681 19.0002 63.8526 19.4849 63.8526 20.082V26.9834C63.8526 27.5805 63.3681 28.0651 62.7711 28.0651Z" fill="url(#paint2_linear_3586_1371)"></path><path d="M62.7711 55.0651H53.0813C52.4844 55.0651 51.9999 54.5805 51.9999 53.9834V47.082C51.9999 46.4849 52.4844 46.0002 53.0813 46.0002H62.7711C63.3681 46.0002 63.8526 46.4849 63.8526 47.082V53.9834C63.8526 54.5805 63.3681 55.0651 62.7711 55.0651Z" fill="url(#paint3_linear_3586_1371)"></path><defs><linearGradient id="paint0_linear_3586_1371" x1="25.8659" y1="51.5423" x2="15.7604" y2="51.5423" gradientUnits="userSpaceOnUse"><stop stop-color="#D6001C"></stop><stop offset="1" stop-color="#6A1F7A"></stop></linearGradient><linearGradient id="paint1_linear_3586_1371" x1="25.8659" y1="24.5039" x2="15.7604" y2="24.5039" gradientUnits="userSpaceOnUse"><stop stop-color="#D6001C"></stop><stop offset="1" stop-color="#6A1F7A"></stop></linearGradient><linearGradient id="paint2_linear_3586_1371" x1="62.3097" y1="24.5039" x2="52.2042" y2="24.5039" gradientUnits="userSpaceOnUse"><stop stop-color="#D6001C"></stop><stop offset="1" stop-color="#6A1F7A"></stop></linearGradient><linearGradient id="paint3_linear_3586_1371" x1="62.3097" y1="51.5039" x2="52.2042" y2="51.5039" gradientUnits="userSpaceOnUse"><stop stop-color="#D6001C"></stop><stop offset="1" stop-color="#6A1F7A"></stop></linearGradient></defs></svg>