<svg xmlns="http://www.w3.org/2000/svg" width="75" height="60" viewBox="0 0 75 60" fill="none"><path opacity="0.3" d="M2.09815e-05 60.0003L1.39619e-05 39.9267C1.13393e-05 32.4267 1.32744 25.515 3.98231 19.1914C6.63717 12.8679 11.1357 6.47083 17.4779 0.000238029L28.9823 9.04435C24.2625 13.8973 20.944 18.3826 19.0266 22.5003C17.1091 26.6179 16.1504 31.0297 16.1505 35.7356L9.29204 29.3385L30.9735 29.3385L30.9735 60.0003L2.09815e-05 60.0003ZM44.0266 60.0003L44.0266 39.9267C44.0266 32.4267 45.354 25.5149 48.0088 19.1914C50.6637 12.8679 55.1622 6.47082 61.5044 0.000222633L73.0088 9.04433C68.2891 13.8973 64.9705 18.3826 63.0531 22.5002C61.1357 26.6179 60.177 31.0297 60.177 35.7355L53.3186 29.3385L75 29.3385L75 60.0002L44.0266 60.0003Z" fill="white"></path></svg>