<svg xmlns="http://www.w3.org/2000/svg" width="72" height="72" viewBox="0 0 72 72" fill="none"><path d="M34.9082 57.1519C34.3113 57.1519 33.8268 56.6673 33.8268 56.0702V34.5783C33.8268 33.9812 34.3113 33.4966 34.9082 33.4966C35.5052 33.4966 35.9897 33.9812 35.9897 34.5783V56.0702C35.9897 56.6673 35.5052 57.1519 34.9082 57.1519Z" fill="#0F0F1A"></path><path fill-rule="evenodd" clip-rule="evenodd" d="M46.6282 17.0933C47.6954 16.6914 48.8403 16.4621 50.0456 16.4616C55.4206 16.464 59.7743 20.8203 59.7743 26.1972C59.7743 31.5756 55.4182 35.9328 50.0412 35.9328H46.9742C46.9872 35.7943 46.9959 35.6559 46.9959 35.5174V34.3534C46.9959 31.5496 44.7248 29.2736 41.9174 29.2736H27.8888C25.0856 29.2736 22.8103 31.5453 22.8103 34.3534V35.5174C22.8103 35.6602 22.8189 35.7943 22.8319 35.9328H18.6835C13.9035 35.9328 10.0319 32.0602 10.0319 27.2789C10.0319 22.4977 13.9035 18.6251 18.6835 18.6251C19.0555 18.6251 19.4232 18.6554 19.7865 18.703C20.0331 11.451 25.9725 5.64429 33.2831 5.64429C40.0443 5.64429 45.6289 10.6116 46.6282 17.0933ZM50.0456 16.4616C50.0471 16.4616 50.0485 16.4616 50.0499 16.4616H50.0412C50.0427 16.4616 50.0442 16.4616 50.0456 16.4616ZM28.7442 26.2836H41.077C41.674 26.2836 42.1585 25.799 42.1585 25.2018C42.1585 24.6047 41.674 24.1201 41.077 24.1201H28.7442C28.1472 24.1201 27.6627 24.6047 27.6627 25.2018C27.6627 25.799 28.1472 26.2836 28.7442 26.2836Z" fill="url(#paint0_linear_3586_1852)"></path><path d="M57.9959 45.9408H42.1504C41.5535 45.9408 41.069 45.4562 41.069 44.8591V34.5783C41.069 33.9812 41.5535 33.4966 42.1504 33.4966C42.7474 33.4966 43.2319 33.9812 43.2319 34.5783V43.7774H57.9959C58.5928 43.7774 59.0773 44.262 59.0773 44.8591C59.0773 45.4562 58.5928 45.9408 57.9959 45.9408Z" fill="#28292B"></path><path d="M27.5725 45.9408H13.9981C13.4011 45.9408 12.9166 45.4562 12.9166 44.8591C12.9166 44.262 13.4011 43.7774 13.9981 43.7774H26.491V34.5783C26.491 33.9812 26.9755 33.4966 27.5725 33.4966C28.1694 33.4966 28.6539 33.9812 28.6539 34.5783V44.8591C28.6539 45.4562 28.1694 45.9408 27.5725 45.9408Z" fill="#28292B"></path><path fill-rule="evenodd" clip-rule="evenodd" d="M9.59958 41.7012C7.77766 41.7012 6.30022 43.1786 6.30022 45.0017C6.30022 46.8247 7.77767 48.3022 9.59958 48.3022C11.4215 48.3022 12.8989 46.8248 12.8989 45.0017C12.8989 43.1786 11.4215 41.7012 9.59958 41.7012ZM4.10022 45.0017C4.10022 41.9641 6.56213 39.5012 9.59958 39.5012C12.6371 39.5012 15.0989 41.9641 15.0989 45.0017C15.0989 48.0392 12.6371 50.5022 9.59958 50.5022C6.56211 50.5022 4.10022 48.0392 4.10022 45.0017Z" fill="#28292B"></path><path fill-rule="evenodd" clip-rule="evenodd" d="M62.4003 41.7012C60.5784 41.7012 59.101 43.1786 59.101 45.0017C59.101 46.8248 60.5784 48.3022 62.4003 48.3022C64.2222 48.3022 65.6997 46.8247 65.6997 45.0017C65.6997 43.1786 64.2222 41.7012 62.4003 41.7012ZM56.901 45.0017C56.901 41.9641 59.3628 39.5012 62.4003 39.5012C65.4378 39.5012 67.8997 41.9641 67.8997 45.0017C67.8997 48.0392 65.4378 50.5022 62.4003 50.5022C59.3628 50.5022 56.901 48.0392 56.901 45.0017Z" fill="#28292B"></path><path fill-rule="evenodd" clip-rule="evenodd" d="M34.8965 57.5552C33.0745 57.5552 31.5971 59.0326 31.5971 60.8557C31.5971 62.6788 33.0745 64.1562 34.8965 64.1562C36.7184 64.1562 38.1958 62.6788 38.1958 60.8557C38.1958 59.0326 36.7184 57.5552 34.8965 57.5552ZM29.3971 60.8557C29.3971 57.8181 31.859 55.3552 34.8965 55.3552C37.9339 55.3552 40.3958 57.8181 40.3958 60.8557C40.3958 63.8932 37.934 66.3562 34.8965 66.3562C31.859 66.3562 29.3971 63.8932 29.3971 60.8557Z" fill="#28292B"></path><defs><linearGradient id="paint0_linear_3586_1852" x1="53.2992" y1="24.0337" x2="10.8895" y2="24.0337" gradientUnits="userSpaceOnUse"><stop stop-color="#D6001C"></stop><stop offset="1" stop-color="#6A1F7A"></stop></linearGradient></defs></svg>