<svg xmlns="http://www.w3.org/2000/svg" width="66" height="52" viewBox="0 0 66 52" fill="none"><g clip-path="url(#clip0_15588_13530)"><path d="M60.2825 42.7741H39.0415C38.3531 42.7741 37.7944 42.2154 37.7944 41.527C37.7944 40.8386 38.3531 40.2798 39.0415 40.2798H60.2825C61.784 40.2798 63.0062 39.0577 63.0062 37.5561V5.88422C63.0062 4.38268 61.784 3.1605 60.2825 3.1605H18.1896C16.6881 3.1605 15.4659 4.38268 15.4659 5.88422V9.33126C15.4659 10.0197 14.9072 10.5784 14.2188 10.5784C13.5304 10.5784 12.9717 10.0197 12.9717 9.33126V5.88422C12.9717 3.00586 15.3113 0.66626 18.1896 0.66626H60.2825C63.1609 0.66626 65.5005 3.00586 65.5005 5.88422V37.5561C65.5005 40.4345 63.1609 42.7741 60.2825 42.7741Z" fill="#0F0F1A"></path><path d="M55.2287 37.2917C54.5403 37.2917 53.9816 36.733 53.9816 36.0446C53.9816 35.3562 54.5403 34.7974 55.2287 34.7974C56.6205 34.7974 57.7529 33.6002 57.7529 32.1336V11.3067C57.7529 9.83505 56.6205 8.6428 55.2287 8.6428H22.8585C22.17 8.6428 21.6113 8.08409 21.6113 7.39568C21.6113 6.70727 22.17 6.14856 22.8585 6.14856H55.2287C57.9974 6.14856 60.2472 8.46322 60.2472 11.3067V32.1336C60.2472 34.977 57.9974 37.2917 55.2287 37.2917Z" fill="#0F0F1A"></path><path d="M45.4766 47.9173C44.7882 47.9173 44.2295 47.3586 44.2295 46.6701V42.5995C44.2295 41.9111 44.7882 41.3524 45.4766 41.3524C46.165 41.3524 46.7237 41.9111 46.7237 42.5995V46.6701C46.7237 47.3586 46.165 47.9173 45.4766 47.9173Z" fill="#0F0F1A"></path><path d="M48.1748 51.1148H39.2354C38.547 51.1148 37.9883 50.5561 37.9883 49.8677C37.9883 49.1793 38.547 48.6206 39.2354 48.6206H48.1748C48.8632 48.6206 49.4219 49.1793 49.4219 49.8677C49.4219 50.5561 48.8632 51.1148 48.1748 51.1148Z" fill="#0F0F1A"></path><path d="M26.2603 49.8678H30.8148C32.4011 49.8678 33.7031 48.5708 33.7031 46.9794V17.9414C33.7031 16.3551 32.4061 15.0531 30.8148 15.0531H9.66861C8.08227 15.0531 6.78027 16.3501 6.78027 17.9414V31.2607H26.2603V49.8678Z" fill="url(#paint0_linear_15588_13530)"></path><path d="M21.1823 51.3344H2.86454C1.56255 51.3344 0.5 50.2718 0.5 48.9698V37.3217C0.5 36.0197 1.56255 34.9572 2.86454 34.9572H21.1773C22.4793 34.9572 23.5418 36.0197 23.5418 37.3217V48.9698C23.5418 50.2718 22.4793 51.3344 21.1773 51.3344H21.1823ZM2.99424 48.8401H21.0526V37.4514H2.99424V48.8401Z" fill="#0F0F1A"></path></g><defs><linearGradient id="paint0_linear_15588_13530" x1="30.1985" y1="36.1906" x2="7.24446" y2="36.1906" gradientUnits="userSpaceOnUse"><stop stop-color="#D6001C"></stop><stop offset="1" stop-color="#6A1F7A"></stop></linearGradient><clipPath id="clip0_15588_13530"><rect width="65" height="50.6681" fill="white" transform="translate(0.5 0.66626)"></rect></clipPath></defs></svg>