<svg xmlns="http://www.w3.org/2000/svg" width="72" height="73" viewBox="0 0 72 73" fill="none"><g clip-path="url(#clip0_967_882)"><path opacity="0.4" d="M33.4536 25.2463C30.9288 26.3761 29.0085 27.9552 29.0085 29.0637V35.0337C29.0085 36.9467 34.7267 40.2548 39.3932 40.2548C44.0597 40.2548 49.7779 36.9467 49.7779 35.0337V29.0637C49.7779 27.9552 47.8534 26.3761 45.3243 25.242" fill="white"></path><path d="M35.9999 40.0708C31.376 40.0708 24.5508 36.7584 24.5508 33.7798V27.8097C24.5508 25.9524 27.1736 24.1164 29.626 23.0166C30.1625 22.7769 30.7927 23.0166 31.0311 23.5601C31.2695 24.0993 31.0311 24.7327 30.4904 24.9724C27.9144 26.1279 26.718 27.416 26.6754 27.8183V33.7798C26.7861 34.8454 31.6272 37.931 35.9956 37.931C40.3641 37.931 45.2052 34.8411 45.3159 33.7712V27.8097C45.2733 27.4117 44.0726 26.1193 41.4967 24.9681C40.9602 24.7284 40.7175 24.095 40.9559 23.5558C41.1944 23.0166 41.8245 22.7726 42.361 23.0123C44.8177 24.1122 47.4447 25.9481 47.4447 27.8097V33.7798C47.4447 36.7584 40.6196 40.0708 35.9956 40.0708H35.9999Z" fill="white"></path><path d="M35.9956 23.6585C32.0018 23.6585 28.9958 20.4488 28.9958 16.1949V14.0637C28.9958 9.80974 32.0061 6.60004 35.9999 6.60004C39.9936 6.60004 43.0039 9.80974 43.0039 14.0637V16.1949C43.0039 20.4488 39.9936 23.6585 35.9999 23.6585H35.9956ZM35.9956 8.73984C33.1727 8.73984 31.1205 10.9781 31.1205 14.0637V16.1949C31.1205 19.2805 33.1685 21.5187 35.9913 21.5187C38.8142 21.5187 40.8665 19.2805 40.8665 16.1949V14.0637C40.8665 10.9781 38.8185 8.73984 35.9913 8.73984H35.9956Z" fill="white"></path><path d="M53.6015 40.6571C52.2943 40.6571 50.8169 40.3875 49.3352 39.874C48.7774 39.6814 48.4837 39.0737 48.6753 38.513C48.8669 37.9567 49.4715 37.6571 50.0292 37.8497C51.2895 38.2862 52.5285 38.5173 53.6015 38.5173C57.3526 38.5173 61.423 35.9538 61.6146 34.9952V29.8083C61.5464 29.4916 60.4863 28.4003 58.3531 27.446C57.8167 27.2063 57.574 26.573 57.8124 26.0337C58.0508 25.4945 58.681 25.2506 59.2175 25.4902C60.2776 25.9652 63.7392 27.6814 63.7392 29.8083V35.0252C63.7392 37.6914 57.6932 40.6571 53.5972 40.6571H53.6015Z" fill="white"></path><path d="M53.5972 26.3119C50.0334 26.3119 47.3425 23.4488 47.3425 19.6528V17.7912C47.3425 13.9952 50.0292 11.1321 53.5972 11.1321C57.1652 11.1321 59.8518 13.9952 59.8518 17.7912V19.6528C59.8518 23.4488 57.1652 26.3119 53.5972 26.3119ZM53.5972 13.2719C51.2086 13.2719 49.4714 15.1721 49.4714 17.7912V19.6528C49.4714 22.2719 51.2043 24.1721 53.5972 24.1721C55.99 24.1721 57.7229 22.2719 57.7229 19.6528V17.7912C57.7229 15.1721 55.99 13.2719 53.5972 13.2719Z" fill="white"></path><path d="M18.3983 40.6571C14.3024 40.6571 8.25635 37.6913 8.25635 35.0251V29.8083C8.25635 27.6813 11.7179 25.9652 12.7781 25.4902C13.3146 25.2505 13.9447 25.4902 14.1831 26.0337C14.4216 26.5729 14.1831 27.2063 13.6424 27.446C11.5093 28.4003 10.4491 29.4873 10.381 29.834V35.0209C10.5768 35.9538 14.643 38.513 18.3941 38.513C19.4713 38.513 20.706 38.2819 21.9706 37.8454C22.5241 37.6528 23.1329 37.9524 23.3245 38.5087C23.5161 39.0694 23.2181 39.6771 22.6646 39.8696C21.1829 40.3832 19.7055 40.6528 18.3983 40.6528V40.6571Z" fill="white"></path><path d="M18.4026 26.3119C14.8389 26.3119 12.1479 23.4488 12.1479 19.6528V17.7912C12.1479 13.9952 14.8346 11.1321 18.4026 11.1321C21.9706 11.1321 24.6572 13.9952 24.6572 17.7912V19.6528C24.6572 23.4488 21.9706 26.3119 18.4026 26.3119ZM18.4026 13.2719C16.014 13.2719 14.2768 15.1721 14.2768 17.7912V19.6528C14.2768 22.2719 16.0097 24.1721 18.4026 24.1721C20.7955 24.1721 22.5284 22.2719 22.5284 19.6528V17.7912C22.5284 15.1721 20.7955 13.2719 18.4026 13.2719Z" fill="white"></path><path d="M14.9794 66.6C14.7282 66.6 14.477 66.5102 14.2769 66.3304C13.8341 65.941 13.7958 65.2648 14.1832 64.8197C17.351 61.212 20.0674 60.416 20.1824 60.3861C20.2676 60.3604 20.3527 60.3475 20.4421 60.3475L39.6914 59.8254L40.5473 59.6114L61.1931 48.4888C62.6152 47.7227 63.2368 46.0922 62.5769 44.8554C61.9553 43.6871 60.3288 43.3875 58.8812 44.1664L48.8541 49.319C48.3304 49.5886 47.6875 49.3789 47.4235 48.8525C47.1553 48.3261 47.3639 47.6799 47.8876 47.4146L57.8934 42.2748C60.3756 40.9353 63.2666 41.62 64.4546 43.8454C65.668 46.1221 64.6547 49.0494 62.2022 50.3761L41.4371 61.5629C41.3605 61.6057 41.2796 61.6357 41.1944 61.6571L40.0959 61.9353C40.0193 61.9524 39.9427 61.9652 39.866 61.9652L20.6593 62.4873C20.1952 62.6585 18.1642 63.5273 15.7799 66.2448C15.5713 66.4845 15.2775 66.6086 14.9794 66.6086V66.6Z" fill="white"></path><path d="M8.0989 56.3675C7.81363 56.3675 7.5241 56.252 7.31547 56.0209C6.9195 55.5843 6.94505 54.9082 7.37934 54.5102L16.1631 46.3832C16.2014 46.349 16.244 46.3147 16.2908 46.2848C20.8339 43.2035 26.0794 44.6928 26.5605 44.8383C28.8853 45.446 33.3006 45.5958 33.3474 45.5958H40.9134C43.7704 45.5958 46.0951 47.697 46.0951 50.2776C46.0951 52.8582 43.7704 54.9595 40.9134 54.9595H30.401C29.8135 54.9595 29.3366 54.4802 29.3366 53.8896C29.3366 53.299 29.8135 52.8197 30.401 52.8197H40.9134C42.5952 52.8197 43.9662 51.6813 43.9662 50.2776C43.9662 48.8739 42.5995 47.7356 40.9134 47.7356H33.3133C33.0877 47.727 28.5532 47.5772 25.9985 46.901C25.9815 46.901 25.9687 46.8925 25.9517 46.8882C25.9091 46.8754 21.3363 45.4973 17.5469 48.0137L8.82272 56.0851C8.61835 56.2734 8.35862 56.3675 8.10316 56.3675H8.0989Z" fill="white"></path></g><defs><clipPath id="clip0_967_882"><rect width="57.931" height="60" fill="white" transform="translate(7.03442 6.60004)"></rect></clipPath></defs></svg>