<svg xmlns="http://www.w3.org/2000/svg" width="72" height="72" viewBox="0 0 72 72" fill="none"><g clip-path="url(#clip0_967_698)"><path opacity="0.4" d="M41.5528 35.5747L33.8278 43.1538L26.1951 35.6651L22.9253 38.8733L33.8324 49.5747L53.4653 30.3122L50.1955 27.1041L46.0217 31.1991L41.562 35.5747H41.5528Z" fill="#6A1F7A"></path><path d="M36.0004 66.0003C35.7052 66.0003 35.41 65.8917 35.1841 65.67L30.8489 61.4166L25.1808 63.7198C24.5905 63.9596 23.9172 63.6836 23.6728 63.1089L21.3253 57.5478H15.1915C14.555 57.5478 14.0385 57.041 14.0385 56.4166V50.3985L8.37045 48.0953C7.78013 47.8555 7.50342 47.1949 7.74785 46.6157L10.0953 41.0546L5.76012 36.8012C5.30815 36.3578 5.30815 35.6428 5.76012 35.1994L10.0953 30.946L7.74785 25.3849C7.50342 24.8057 7.78474 24.1451 8.37045 23.9053L14.0385 21.6021V15.584C14.0385 14.9596 14.555 14.4528 15.1915 14.4528H21.3253L23.6728 8.89171C23.788 8.61569 24.014 8.39397 24.2954 8.28085C24.5767 8.16773 24.8949 8.16773 25.1762 8.28085L30.8443 10.584L35.1841 6.33063C35.636 5.88719 36.3647 5.88719 36.8167 6.33063L41.1519 10.584L46.8199 8.28085C47.1012 8.16773 47.4194 8.16773 47.7008 8.28085C47.9821 8.39397 48.2081 8.61569 48.3234 8.89171L50.6708 14.4528H56.8047C57.4411 14.4528 57.9576 14.9596 57.9576 15.584V21.6021L63.6257 23.9053C64.216 24.1451 64.4927 24.8057 64.2483 25.3849L61.9008 30.946L66.236 35.1994C66.688 35.6428 66.688 36.3578 66.236 36.8012L61.9008 41.0546L64.2483 46.6157C64.4927 47.1949 64.2114 47.8555 63.6257 48.0953L57.9576 50.3985V56.4166C57.9576 57.041 57.4411 57.5478 56.8047 57.5478H50.6708L48.3234 63.1089C48.0789 63.6881 47.4056 63.9596 46.8153 63.7198L41.1472 61.4166L36.8121 65.67C36.5861 65.8917 36.2909 66.0003 35.9958 66.0003H36.0004ZM31.1164 58.9505C31.4161 58.9505 31.7113 59.0637 31.9327 59.2809L36.0004 63.2718L40.0681 59.2809C40.3955 58.9596 40.8936 58.86 41.3225 59.0365L46.6354 61.1949L48.8353 55.9822C49.0152 55.5614 49.4348 55.2854 49.9006 55.2854H55.6517V49.6428C55.6517 49.1858 55.933 48.7741 56.3619 48.5976L61.6748 46.4392L59.4749 41.2266C59.2951 40.8057 59.3965 40.3171 59.724 39.9958L63.7917 36.0048L59.724 32.0139C59.3919 31.6926 59.2951 31.2039 59.4749 30.7831L61.6748 25.5704L56.3619 23.4121C55.933 23.2356 55.6517 22.8238 55.6517 22.3668V16.7243H49.9006C49.4348 16.7243 49.0152 16.4483 48.8353 16.0275L46.6354 10.8148L41.3225 12.9732C40.8936 13.1496 40.3955 13.0501 40.0681 12.7288L36.0004 8.73787L31.9327 12.7288C31.6052 13.0546 31.1071 13.1496 30.6782 12.9732L25.3653 10.8148L23.1654 16.0275C22.9856 16.4483 22.5659 16.7243 22.1001 16.7243H16.349V22.3668C16.349 22.8238 16.0677 23.2356 15.6388 23.4121L10.3259 25.5704L12.5258 30.7831C12.7056 31.2039 12.6042 31.6926 12.2767 32.0139L8.20904 36.0048L12.2767 39.9958C12.6088 40.3171 12.7056 40.8057 12.5258 41.2266L10.3259 46.4392L15.6388 48.5976C16.0677 48.7741 16.349 49.1858 16.349 49.6428V55.2854H22.1001C22.5659 55.2854 22.9856 55.5614 23.1654 55.9822L25.3653 61.1949L30.6782 59.0365C30.8212 58.9777 30.9688 58.9505 31.121 58.9505H31.1164Z" fill="black"></path><path d="M36.0138 54.2489C31.2959 54.2489 26.7993 52.5158 23.3449 49.362C20.6331 46.8869 18.7561 43.7195 17.9075 40.2036C17.5801 38.8326 17.4094 37.4208 17.4094 36C17.4094 25.9367 25.7524 17.7511 36.0092 17.7511C39.4266 17.7511 42.7703 18.6697 45.6804 20.4072C46.2246 20.733 46.3952 21.4299 46.0632 21.9638C45.7311 22.4977 45.0209 22.6652 44.4767 22.3394C41.9309 20.819 39.0023 20.0136 36.0092 20.0136C27.0252 20.0136 19.7154 27.1855 19.7154 36C19.7154 37.2443 19.863 38.4842 20.1489 39.6833C20.8868 42.7602 22.5379 45.5385 24.913 47.7059C27.9384 50.4661 31.877 51.9864 36.0092 51.9864C44.9932 51.9864 52.3031 44.8145 52.3031 36C52.3031 35.3756 52.8196 34.8688 53.456 34.8688C54.0925 34.8688 54.609 35.3756 54.609 36C54.609 46.0633 46.2661 54.2489 36.0092 54.2489H36.0138Z" fill="black"></path><path d="M34.0537 46.8552C33.7586 46.8552 33.4634 46.7466 33.2374 46.5249L23.8614 37.3258C23.4095 36.8823 23.4095 36.1674 23.8614 35.724L26.6747 32.9638C27.1082 32.5385 27.8738 32.5385 28.3073 32.9638L34.0584 38.6063L38.2967 34.448C38.7487 34.0045 39.4773 34.0045 39.9293 34.448C40.3813 34.8914 40.3813 35.6063 39.9293 36.0498L34.8747 41.009C34.4411 41.4344 33.6756 41.4344 33.242 41.009L27.491 35.3665L26.3104 36.5294L34.0584 44.1312L49.3099 29.1674L48.1293 28.009L45.3529 30.733C44.9009 31.1765 44.1723 31.1765 43.7203 30.733C43.2683 30.2896 43.2683 29.5747 43.7203 29.1312L47.313 25.6063C47.7465 25.181 48.5121 25.181 48.9456 25.6063L51.7588 28.3665C52.2108 28.8099 52.2108 29.5249 51.7588 29.9683L34.8793 46.5294C34.6533 46.7511 34.3581 46.8597 34.063 46.8597L34.0537 46.8552Z" fill="black"></path></g><defs><clipPath id="clip0_967_698"><rect width="61.1538" height="60" fill="white" transform="translate(5.4231 6)"></rect></clipPath></defs></svg>