<svg xmlns="http://www.w3.org/2000/svg" width="72" height="72" viewBox="0 0 72 72" fill="none"><g clip-path="url(#clip0_967_338)"><path opacity="0.4" d="M37.6984 43.9581C41.7424 43.9581 45.0207 40.756 45.0207 36.8059C45.0207 32.8558 41.7424 29.6536 37.6984 29.6536C33.6543 29.6536 30.376 32.8558 30.376 36.8059C30.376 40.756 33.6543 43.9581 37.6984 43.9581Z" fill="white"></path><path d="M33.4616 64.5C18.8606 64.5 6.98193 52.8973 6.98193 38.6356C6.98193 24.3738 18.8606 12.7712 33.4616 12.7712C37.532 12.7712 41.493 13.6134 44.9113 15.2037C45.4584 15.4559 45.686 16.0972 45.4277 16.6273C45.1695 17.1617 44.5174 17.384 43.9703 17.1318C40.8452 15.674 37.2081 14.9045 33.4616 14.9045C20.0686 14.9045 9.17033 25.5495 9.17033 38.6313C9.17033 51.7131 20.0686 62.3582 33.4616 62.3582C46.8546 62.3582 57.7528 51.7131 57.7528 38.6313C57.7528 34.4289 56.9037 30.8378 55.1574 27.6486C54.8729 27.127 55.0742 26.4814 55.6082 26.2036C56.1378 25.9257 56.803 26.1223 57.0875 26.6439C59.0046 30.1495 59.9412 34.074 59.9412 38.6356C59.9412 52.8973 48.0626 64.5 33.4616 64.5Z" fill="white"></path><path d="M33.4617 53.7609C24.9225 53.7609 17.9766 46.9763 17.9766 38.6356C17.9766 30.2948 24.9225 23.5103 33.4617 23.5103C34.2145 23.5103 34.9804 23.5616 35.7332 23.6599C36.3329 23.7411 36.753 24.2798 36.6699 24.8612C36.5867 25.4469 36.0352 25.8573 35.44 25.7761C34.7835 25.6906 34.1182 25.6435 33.4617 25.6435C26.1305 25.6435 20.165 31.4705 20.165 38.6313C20.165 45.7921 26.1305 51.6191 33.4617 51.6191C40.7928 51.6191 46.7584 45.7921 46.7584 38.6313C46.7584 38.0413 47.2486 37.5625 47.8526 37.5625C48.4566 37.5625 48.9468 38.0413 48.9468 38.6313C48.9468 46.972 42.0008 53.7566 33.4617 53.7566V53.7609Z" fill="white"></path><path d="M35.4837 37.2163C35.2036 37.2163 34.9191 37.1094 34.7046 36.8999C34.2801 36.481 34.2844 35.8012 34.7134 35.3865L50.2204 20.4151C50.6493 20.0004 51.3452 20.0047 51.7698 20.4237C52.1943 20.8426 52.1899 21.5224 51.761 21.937L36.254 36.9085C36.0395 37.1137 35.7638 37.2163 35.4837 37.2163Z" fill="white"></path><path d="M50.7541 22.4757C50.4653 22.4757 50.1895 22.3645 49.9838 22.1679C49.7781 21.9669 49.6599 21.6976 49.6599 21.4155L49.6074 13.0405C49.6074 12.4506 50.0889 11.9675 50.6929 11.9632H50.7016C51.3012 11.9632 51.7914 12.4377 51.7958 13.0234L51.844 20.3296L59.3239 20.2826H59.3327C59.9323 20.2826 60.4225 20.7571 60.4269 21.3428C60.4269 21.9327 59.9454 22.4158 59.3414 22.4201L50.7673 22.4757H50.7585H50.7541Z" fill="white"></path><path d="M55.3498 18.0125C54.7502 18.0125 54.26 17.5379 54.2556 16.9523L54.1987 8.57733C54.1987 7.98736 54.6802 7.50428 55.2842 7.5C55.8926 7.51283 56.3828 7.97026 56.3871 8.56023L56.4353 15.8664L63.9152 15.8194H63.924C64.5236 15.8194 65.0138 16.2939 65.0182 16.8796C65.0182 17.4695 64.5367 17.9526 63.9327 17.9569L55.3586 18.0125H55.3498Z" fill="white"></path><path d="M40.6045 37.7806H40.5869L35.0153 37.6865C34.4375 37.678 33.9692 37.2291 33.943 36.6648L33.7066 31.4705C33.6804 30.8806 34.1487 30.3804 34.7483 30.3547C35.3435 30.3205 35.8644 30.7865 35.8906 31.3722L36.0832 35.5618L40.6263 35.6388C41.2303 35.6473 41.7118 36.1347 41.703 36.7246C41.6943 37.3103 41.2041 37.7763 40.6088 37.7763L40.6045 37.7806Z" fill="white"></path><path d="M33.2034 46.3351C28.8573 46.3351 25.3208 42.8808 25.3208 38.6356C25.3208 36.7332 26.0342 34.9077 27.3341 33.4927C27.7368 33.0523 28.4283 33.0181 28.8791 33.4114C29.3299 33.8048 29.365 34.4802 28.9623 34.9206C28.0257 35.9423 27.5092 37.259 27.5092 38.6356C27.5092 41.7051 30.0653 44.1975 33.2034 44.1975C34.5952 44.1975 35.9345 43.7016 36.9762 42.8039C37.427 42.4105 38.1186 42.4533 38.5212 42.8936C38.9239 43.334 38.8801 44.0094 38.4293 44.4027C36.9893 45.6511 35.1336 46.3351 33.2078 46.3351H33.2034Z" fill="white"></path></g><defs><clipPath id="clip0_967_338"><rect width="58.0364" height="57" fill="white" transform="translate(6.98193 7.5)"></rect></clipPath></defs></svg>