<svg xmlns="http://www.w3.org/2000/svg" width="72" height="73" viewBox="0 0 72 73" fill="none"><path opacity="0.4" d="M58.7791 36.3751H18.5521C16.908 36.3751 15.573 35.0401 15.573 33.396V28.0215C15.573 26.3774 16.908 25.0424 18.5521 25.0424H58.7791C60.4232 25.0424 61.7582 26.3774 61.7582 28.0215V33.396C61.7582 35.0401 60.4232 36.3751 58.7791 36.3751Z" fill="white"></path><path d="M51.0837 66.1451H17.7337C15.5015 66.1451 13.6814 64.3293 13.6814 62.0928V38.1867C13.6814 37.5943 14.1622 37.1135 14.7546 37.1135C15.347 37.1135 15.8277 37.5943 15.8277 38.1867V62.0928C15.8277 63.1445 16.682 63.9987 17.7337 63.9987H51.0837C52.1354 63.9987 52.9897 63.1445 52.9897 62.0928V38.1867C52.9897 37.5943 53.4705 37.1135 54.0629 37.1135C54.6553 37.1135 55.136 37.5943 55.136 38.1867V62.0928C55.136 64.325 53.3202 66.1451 51.0837 66.1451Z" fill="white"></path><path d="M54.5212 34.319H14.2943C12.062 34.319 10.2419 32.5032 10.2419 30.2667V24.8922C10.2419 22.66 12.0578 20.8399 14.2943 20.8399H54.5212C56.7534 20.8399 58.5735 22.6557 58.5735 24.8922V30.2667C58.5735 32.5032 56.7577 34.319 54.5212 34.319ZM14.2943 22.9906C13.2425 22.9906 12.3883 23.8448 12.3883 24.8965V30.271C12.3883 31.3227 13.2425 32.177 14.2943 32.177H54.5212C55.5729 32.177 56.4271 31.3227 56.4271 30.271V24.8965C56.4271 23.8448 55.5729 22.9906 54.5212 22.9906H14.2943Z" fill="white"></path><path d="M35.4432 22.9905C34.8465 22.9905 34.2799 22.7372 33.8807 22.2994C33.4042 21.7757 33.2239 21.0545 33.3999 20.3677C33.7433 19.0112 35.6106 12.13 38.7271 9.72176C42.1956 7.04311 47.1709 6.69111 50.0513 8.91902C51.4421 9.9922 52.2062 11.529 52.2062 13.2375C52.2062 15.3409 51.0429 17.4486 49.0124 19.0155C48.5445 19.3803 47.8706 19.2902 47.5057 18.8223C47.1451 18.3544 47.231 17.6804 47.6989 17.3155C49.197 16.1565 50.0599 14.667 50.0599 13.2332C50.0599 12.2029 49.592 11.2714 48.7377 10.6103C46.6257 8.97912 42.7236 9.33971 40.0364 11.4131C37.9287 13.0443 36.1944 18.0754 35.4904 20.8356C36.0571 20.7755 36.5765 21.179 36.658 21.7456C36.7439 22.3337 36.3361 22.8789 35.7523 22.9647C35.6493 22.9819 35.5462 22.9862 35.4432 22.9862V22.9905Z" fill="white"></path><path d="M33.3704 22.9905C33.2674 22.9905 33.1644 22.9819 33.0614 22.969C32.4733 22.8832 32.0697 22.338 32.1556 21.7499C32.2372 21.179 32.7523 20.7883 33.3232 20.8356C32.6192 18.0754 30.885 13.0443 28.7772 11.4131C26.09 9.33971 22.1879 8.97912 20.0759 10.6103C19.2217 11.2714 18.7538 12.2029 18.7538 13.2332C18.7538 14.667 19.6123 16.1522 21.1148 17.3155C21.5827 17.6761 21.6685 18.3501 21.3079 18.8223C20.9431 19.2902 20.2734 19.376 19.8012 19.0155C17.7707 17.4486 16.6074 15.3409 16.6074 13.2375C16.6074 11.5247 17.3715 9.9922 18.7624 8.91902C21.6471 6.69111 26.6223 7.04311 30.0865 9.72176C33.203 12.1343 35.0746 19.0155 35.418 20.3677C35.5898 21.0545 35.4095 21.78 34.933 22.3037C34.5338 22.7415 33.9671 22.9948 33.3704 22.9948V22.9905Z" fill="white"></path><path d="M34.4059 61.3758C33.8135 61.3758 33.3328 60.8951 33.3328 60.3027V39.4702C33.3328 38.8778 33.8135 38.397 34.4059 38.397C34.9983 38.397 35.4791 38.8778 35.4791 39.4702V60.3027C35.4791 60.8951 34.9983 61.3758 34.4059 61.3758Z" fill="white"></path><path d="M34.4059 61.3758C33.8135 61.3758 33.3328 60.8951 33.3328 60.3027V39.4702C33.3328 38.8778 33.8135 38.397 34.4059 38.397C34.9983 38.397 35.4791 38.8778 35.4791 39.4702V60.3027C35.4791 60.8951 34.9983 61.3758 34.4059 61.3758Z" fill="white"></path></svg>