<svg xmlns="http://www.w3.org/2000/svg" width="72" height="73" viewBox="0 0 72 73" fill="none"><g clip-path="url(#clip0_967_925)"><path opacity="0.4" fill-rule="evenodd" clip-rule="evenodd" d="M24.3465 33.994L39.1306 27.4043C44.8454 29.9564 50.5645 32.5 56.2835 35.0478L39.1306 42.6914L21.9778 35.0478L24.3422 33.994H24.3465Z" fill="white"></path><path d="M33.3474 44.2954C33.198 44.2954 33.0486 44.2658 32.9121 44.2023L14.8245 36.144C14.4404 35.9747 14.1929 35.5938 14.1929 35.179C14.1929 34.7643 14.4404 34.3834 14.8245 34.2141L32.9121 26.1558C33.1895 26.033 33.5096 26.033 33.787 26.1558C38.3878 28.2084 42.9887 30.2569 47.5895 32.3095L51.8703 34.2183C52.2544 34.3876 52.5019 34.7685 52.5019 35.1833C52.5019 35.598 52.2544 35.979 51.8703 36.1482L33.7827 44.2066C33.6419 44.27 33.4968 44.2997 33.3474 44.2997V44.2954ZM17.8633 35.179L33.3474 42.0777L48.8315 35.179L46.7146 34.2352C42.2589 32.2503 37.8031 30.2653 33.3474 28.2762L18.1919 35.0309L17.8633 35.179Z" fill="white"></path><path d="M41.9602 53.1621C41.3712 53.1621 40.8932 52.6881 40.8932 52.104V49.6535C40.8932 49.0695 41.3712 48.5955 41.9602 48.5955C42.5492 48.5955 43.0272 49.0695 43.0272 49.6535V52.104C43.0272 52.6881 42.5492 53.1621 41.9602 53.1621ZM41.9602 45.9714C41.3712 45.9714 40.8932 45.4974 40.8932 44.9133V38.9797L33.2664 35.0309C32.7457 34.76 32.5409 34.121 32.814 33.6046C33.0872 33.0883 33.7316 32.8851 34.2523 33.156L42.451 37.4052C42.8053 37.5872 43.0229 37.9512 43.0229 38.3448V44.9176C43.0229 45.5016 42.5449 45.9757 41.956 45.9757L41.9602 45.9714Z" fill="white"></path><path d="M36.924 51.1602H26.173C24.8628 51.1602 23.6421 50.5762 22.7288 49.5139C21.8581 48.5023 21.3801 47.1692 21.3801 45.764V43.2374C21.3801 42.6533 21.8581 42.1793 22.4471 42.1793C23.0361 42.1793 23.5141 42.6533 23.5141 43.2374V45.764C23.5141 46.6698 23.8129 47.512 24.3506 48.1426C24.85 48.7224 25.4944 49.0441 26.1688 49.0441H36.9197C37.5087 49.0441 37.9867 49.5181 37.9867 50.1022C37.9867 50.6862 37.5087 51.1602 36.9197 51.1602H36.924Z" fill="white"></path><path opacity="0.4" d="M64.7681 53.7504L67.1539 51.3803L55.2549 48.2188L58.443 60.0185L60.7435 57.7415" fill="white"></path><path d="M44.632 62.3124H9.44277C6.90761 62.3124 4.84619 60.2639 4.84619 57.7499V13.9625C4.84619 11.4485 6.90761 9.40006 9.44277 9.40006H57.1157C59.6508 9.40006 61.7123 11.4485 61.7123 13.9625V40.1943C61.7123 40.7784 61.2343 41.2524 60.6453 41.2524C60.0563 41.2524 59.5783 40.7784 59.5783 40.1943V13.9625C59.5783 12.6124 58.4729 11.5162 57.1157 11.5162H9.44277C8.08556 11.5162 6.98016 12.6124 6.98016 13.9625V57.7499C6.98016 59.1 8.08556 60.1962 9.44277 60.1962H44.6277C45.2167 60.1962 45.6947 60.6702 45.6947 61.2543C45.6947 61.8383 45.2167 62.3124 44.6277 62.3124H44.632Z" fill="white"></path><path d="M14.8971 16.5188H13.1302C12.5412 16.5188 12.0632 16.0448 12.0632 15.4607C12.0632 14.8767 12.5412 14.4026 13.1302 14.4026H14.8971C15.4861 14.4026 15.9641 14.8767 15.9641 15.4607C15.9641 16.0448 15.4861 16.5188 14.8971 16.5188Z" fill="white"></path><path d="M21.7089 16.5188H19.942C19.353 16.5188 18.875 16.0448 18.875 15.4607C18.875 14.8767 19.353 14.4026 19.942 14.4026H21.7089C22.2979 14.4026 22.7759 14.8767 22.7759 15.4607C22.7759 16.0448 22.2979 16.5188 21.7089 16.5188Z" fill="white"></path><path d="M28.5248 16.5188H26.7579C26.1689 16.5188 25.6909 16.0448 25.6909 15.4607C25.6909 14.8767 26.1689 14.4026 26.7579 14.4026H28.5248C29.1138 14.4026 29.5918 14.8767 29.5918 15.4607C29.5918 16.0448 29.1138 16.5188 28.5248 16.5188Z" fill="white"></path><path d="M55.9334 62.2235C55.8395 62.2235 55.7499 62.2108 55.656 62.1896C55.2889 62.0923 54.9987 61.8045 54.9006 61.4405L51.7124 49.6408C51.6142 49.2769 51.7209 48.8875 51.9898 48.6166C52.2587 48.3458 52.6513 48.2484 53.0227 48.3415L64.9217 51.5031C65.2887 51.6004 65.5789 51.8882 65.6771 52.2522C65.7753 52.6161 65.6686 53.0055 65.3997 53.2764L63.0096 55.6465C62.5914 56.0612 61.9171 56.0612 61.4988 55.6465C61.0805 55.2317 61.0805 54.563 61.4988 54.1482L62.5786 53.0732L54.2518 50.8597L56.484 59.117L57.4741 58.1351C57.8924 57.7203 58.5667 57.7203 58.985 58.1351C59.4032 58.5498 59.4032 59.2185 58.985 59.6333L56.6888 61.9103C56.4882 62.1134 56.2151 62.2193 55.9334 62.2193V62.2235Z" fill="white"></path><path d="M65.9461 63.4001C65.6729 63.4001 65.3998 63.2985 65.1906 63.0911L61.708 59.6375C61.2897 59.2228 61.2897 58.5541 61.708 58.1393C62.1262 57.7245 62.8006 57.7245 63.2188 58.1393L66.7015 61.5929C67.1197 62.0076 67.1197 62.6763 66.7015 63.0911C66.4923 63.2985 66.2192 63.4001 65.9461 63.4001Z" fill="white"></path><path d="M59.5356 21.9108H13.1302C12.5412 21.9108 12.0632 21.4367 12.0632 20.8527C12.0632 20.2686 12.5412 19.7946 13.1302 19.7946H59.5356C60.1245 19.7946 60.6025 20.2686 60.6025 20.8527C60.6025 21.4367 60.1245 21.9108 59.5356 21.9108Z" fill="white"></path></g><defs><clipPath id="clip0_967_925"><rect width="62.3077" height="54" fill="white" transform="translate(4.84619 9.40006)"></rect></clipPath></defs></svg>