<svg xmlns="http://www.w3.org/2000/svg" width="72" height="73" viewBox="0 0 72 73" fill="none"><path opacity="0.4" d="M31.4202 26.4206L34.2688 25.4539C39.0764 23.82 42.973 20.4667 44.4444 15.6077C44.4444 15.6077 45.2656 12.8275 45.92 10.7445L50.471 9.19614L63.1317 46.4167L58.4994 47.9907L54.6071 45.5784C50.4496 42.6057 45.1116 41.8272 40.2826 43.4996L37.5495 44.4363" fill="white"></path><path d="M60.728 30.5525C60.2832 30.5525 59.8683 30.2702 59.7143 29.8254C59.5261 29.265 59.8212 28.6577 60.3815 28.4695L63.0719 27.5542C63.5595 27.3873 63.8889 26.9511 63.9103 26.4378C64.03 23.6191 63.0976 20.8731 61.284 18.7131C60.959 18.3239 60.4157 18.1742 59.9367 18.3367L57.2463 19.252C56.686 19.4445 56.0786 19.1408 55.8904 18.5848C55.7022 18.0245 55.9974 17.4171 56.5577 17.2289L59.2481 16.3136C60.5783 15.8644 62.0197 16.2665 62.9222 17.3401C65.0822 19.9107 66.19 23.1785 66.0489 26.5319C65.989 27.9348 65.0908 29.1325 63.7648 29.5858L61.0744 30.5012C60.959 30.5397 60.8435 30.5568 60.728 30.5568V30.5525Z" fill="white"></path><path d="M59.4664 44.3936C59.2696 44.3936 59.0729 44.338 58.9018 44.2354L55.0095 41.823C55.0095 41.823 54.971 41.7973 54.9496 41.7845C51.083 39.0171 46.0914 38.29 41.5961 39.8426L38.8629 40.7794C38.3026 40.9718 37.6952 40.6724 37.5027 40.1164C37.3102 39.5561 37.6097 38.9487 38.1657 38.7562L40.8989 37.8195C46.0358 36.0444 51.7374 36.87 56.1643 40.0223L59.599 42.1481L62.7428 41.0788L50.7707 5.88133L47.2335 7.08323C46.6731 7.27571 46.0658 6.9763 45.8776 6.41598C45.6894 5.85566 45.9845 5.2483 46.5448 5.0601L51.0958 3.51173C51.6561 3.32354 52.2635 3.61867 52.4517 4.17898L65.1123 41.3996C65.3005 41.9599 65.0054 42.5672 64.4451 42.7554L59.8128 44.3337C59.7016 44.3722 59.5861 44.3893 59.4664 44.3893V44.3936Z" fill="white"></path><path d="M32.3861 22.8235C31.9412 22.8235 31.5263 22.5412 31.3724 22.0964C31.1842 21.5361 31.4793 20.9287 32.0396 20.7405L34.8883 19.7739C39.7215 18.1314 43.0963 14.8807 44.388 10.6291C44.5591 10.0645 45.1579 9.74372 45.7225 9.91481C46.2871 10.0859 46.6079 10.6847 46.4368 11.2493C44.9398 16.181 41.086 19.9278 35.5812 21.797L32.7325 22.7636C32.617 22.8021 32.5016 22.8192 32.3861 22.8192V22.8235Z" fill="white"></path><path d="M38.2 68.9408C37.2419 68.9408 36.3094 68.5686 35.5994 67.8757L35.2487 67.5293C29.9449 62.3367 25.5179 56.3699 22.0876 49.7915L21.3348 48.3458C21.0611 47.824 21.2664 47.1781 21.7882 46.9044C22.31 46.6307 22.9559 46.836 23.2296 47.3578L23.9824 48.8035C27.3058 55.1851 31.6002 60.9723 36.7414 66.0023L37.0922 66.3488C37.5242 66.7722 38.1486 66.9133 38.7175 66.7166L46.1385 64.193C46.5406 64.0562 46.8656 63.7696 47.0538 63.3889C47.242 63.0082 47.2677 62.5762 47.1351 62.1742L46.4978 60.3007C46.2155 59.4709 45.313 59.0261 44.4832 59.3041L43.4268 59.6591C41.8955 60.1767 40.2145 59.6506 39.2479 58.3546L34.2435 51.6479C33.8885 51.1731 33.9869 50.5058 34.4617 50.1508C34.9364 49.7958 35.6037 49.8942 35.9587 50.369L40.9631 57.0757C41.3737 57.6275 42.0923 57.8499 42.7467 57.6317L43.8032 57.2767C45.745 56.6223 47.8622 57.6702 48.5252 59.6121L49.1626 61.4855C49.4833 62.4308 49.4192 63.4402 48.9786 64.3342C48.5381 65.2281 47.7767 65.8996 46.8314 66.2204L39.4104 68.744C39.0126 68.8809 38.6063 68.945 38.2 68.945V68.9408Z" fill="white"></path><path d="M14.7173 48.2559C14.6018 48.2559 14.4821 48.2388 14.3709 48.2003L9.78994 46.6306C9.4777 46.5237 9.22962 46.2756 9.12269 45.9633L5.99602 36.7715C5.89764 36.4807 5.92759 36.1642 6.08157 35.8947L8.62225 31.4592C8.91738 30.9459 9.56752 30.7706 10.0808 31.0614C10.5941 31.3566 10.7694 32.0067 10.4786 32.52L8.17741 36.5363L10.979 44.7743L14.713 46.0532L18.477 44.7358C19.0373 44.539 19.6447 44.8342 19.8415 45.3902C20.0382 45.9462 19.7431 46.5579 19.187 46.7546L15.0766 48.1961C14.9611 48.2346 14.8414 48.2559 14.7216 48.2559H14.7173Z" fill="white"></path><path d="M21.4264 49.0643C20.8703 49.0643 20.3143 48.936 19.801 48.6836C18.9114 48.2473 18.2484 47.4903 17.9276 46.5536L12.4741 30.5267C12.1576 29.59 12.2218 28.5891 12.658 27.7038C13.0943 26.8184 13.8514 26.1554 14.7838 25.8346L24.0269 22.3401C24.9979 22.0107 26.003 22.0749 26.8884 22.5155C27.7738 22.9517 28.4368 23.7131 28.7533 24.6498L34.1512 40.6638C34.7971 42.5843 33.7662 44.6844 31.8457 45.3431L29.6857 46.0831C29.1254 46.2755 28.5181 45.9761 28.3256 45.4201C28.1331 44.8598 28.4325 44.2524 28.9886 44.0599L31.1486 43.32C31.957 43.0419 32.3932 42.1566 32.1195 41.3482L26.7216 25.3342C26.589 24.9407 26.311 24.6199 25.9346 24.4359C25.5625 24.252 25.1348 24.2221 24.7413 24.3589L15.4981 27.8535C15.0704 27.9989 14.7496 28.2812 14.5657 28.6533C14.3818 29.0254 14.3561 29.4489 14.4887 29.8467L19.9422 45.8735C20.0748 46.267 20.3571 46.5878 20.7335 46.7717C21.1056 46.9556 21.529 46.9813 21.9268 46.8487L24.3392 46.0189C24.8995 45.8264 25.5069 46.1258 25.6994 46.6819C25.8918 47.2422 25.5924 47.8496 25.0364 48.042L22.624 48.8718C22.2305 49.0087 21.8242 49.0729 21.4221 49.0729L21.4264 49.0643Z" fill="white"></path></svg>